<?xml version="1.0" standalone="no"?>
<!DOCTYPE svg PUBLIC "-//W3C//DTD SVG 1.1//EN" "http://www.w3.org/Graphics/SVG/1.1/DTD/svg11.dtd" >
<svg xmlns="http://www.w3.org/2000/svg">
<metadata></metadata>
<defs>
<font id="cd-iconsregular" horiz-adv-x="1843" >
<font-face units-per-em="2048" ascent="1638" descent="-410" />
<missing-glyph horiz-adv-x="1024" />
<glyph horiz-adv-x="2048" />
<glyph horiz-adv-x="2048" />
<glyph unicode="&#xd;" horiz-adv-x="1024" />
<glyph unicode=" "  horiz-adv-x="1024" />
<glyph unicode="&#x09;" horiz-adv-x="1024" />
<glyph unicode="&#xa0;" horiz-adv-x="1024" />
<glyph unicode="!" horiz-adv-x="921" d="M0 410v409h614v-409h-102v307h-102v-717h-205v717h-103v-307h-102zM205 922v307h205v-307h-205z" />
<glyph unicode="&#x22;" d="M0 102v1434h1536v-1434h-1536zM207 205h1225v1227h-1225v-1227zM305 612v414h103v205h204v102h414v-102h205v-205h102v-414h-102v-204h-205v-103h-414v103h-204v204h-103zM412 616h102v-102h102v-102h406v102h102v102h103v406h-103v102h-102v103h-406v-103h-102v-102 h-102v-406zM612 715v209h103v102h209v-102h102v-209h-102v-103h-209v103h-103zM719 719h201v201h-201v-201z" />
<glyph unicode="#" d="M0 307v307h307v205h-205v-102h-102v205h205v102h-205v205h307v102h615v-102h-205v-103h-103v-102h103v-102h614v307h103v-103h102v-614h-102v-102h102v-308h-102v103h-103v102h-205v103h-102v102h-205v-102h-614v-205h-103v102h-102z" />
<glyph unicode="$" d="M0 715v209h203v98h-203v209h305v102h619v-106h-205v-103h-103v-98h103v-102h508v102h102v612h207v-104h-100v-98h100v-107h-100v-98h100v-107h-100v-98h100v-414h-100v-102h-103v-102h-102v-103h-103v-102h-204v-203h-209v203h-103v102h-102v103h-102v102h-103v307h-201 v-102h-104zM821 309h99v99h-99v-99zM924 412h98v98h-98v-98z" />
<glyph unicode="%" d="M0 305v926h100v102h103v103h307v102h307v100h516v-100h103v-102h100v-721h-100v-103h-103v-102h-102v-102h-103v-103h-102v-102h-102v-103h-103v-100h-209v100h-204v103h-205v102h-203zM104 412h103v-103h205v-102h204v-103h99v1020h-103v103h-102v102h-303v-102h-103 v-815zM514 1333h102v-102h103v-103h102v-921h99v102h102v103h102v102h103v102h102v103h103v713h-103v102h-508v-102h-307v-99zM920 612v721h102v103h209v-209h-103v-103h-102v-512h-106z" />
<glyph unicode="&#x26;" horiz-adv-x="1433" d="M0 408v720h104v-102h99v305h923v-1126h-923v305h-99v-102h-104zM207 514h102v-205h713v918h-713v-205h-102v-98h102v-103h99v307h311v-311h-307v-98h512v-107h-516v103h-99v-103h-102v-98zM408 408v106h516v-106h-516zM514 924h98v98h-98v-98zM817 817v107h107v-107h-107 zM817 1022v106h107v-106h-107z" />
<glyph unicode="'" horiz-adv-x="921" d="M0 715v106h100v103h103v102h102v102h103v103h102v100h104v-1126h-104v100h-102v103h-103v102h-102v102h-103v103h-100zM104 719h103v-103h102v-102h103v-102h98v712h-98v-102h-103v-102h-102v-103h-103v-98z" />
<glyph unicode="(" horiz-adv-x="1433" d="M0 408v720h104v-102h99v305h923v-1126h-923v305h-99v-102h-104zM207 514h102v-205h713v918h-713v-205h-102v-98h102v-103h99v103h106v-107h-102v-98h307v-107h-311v103h-99v-103h-102v-98zM408 408v106h208v-106h-208zM408 1022v106h516v-106h-516zM612 817v107h312v-107 h-312zM715 408v106h209v-106h-209zM817 612v107h107v-107h-107z" />
<glyph unicode=")" horiz-adv-x="1228" d="M0 205v1126h922v-1126h-922zM102 307h717v922h-717v-922zM205 410v102h512v-102h-512zM205 614v103h512v-103h-512zM205 819v307h307v-307h-307zM307 922h103v102h-103v-102zM614 819v103h103v-103h-103zM614 1024v102h103v-102h-103z" />
<glyph unicode="*" horiz-adv-x="1433" d="M0 102v1434h1126v-1434h-1126zM102 205h922v1229h-922v-1229zM205 307v103h717v-103h-717zM205 512v102h717v-102h-717zM205 717v307h307v-307h-307zM205 1126v205h717v-205h-717zM307 819h103v103h-103v-103zM614 717v102h308v-102h-308zM614 922v102h308v-102h-308z " />
<glyph unicode="+" horiz-adv-x="1433" d="M0 817v311h100v101h926v-101h100v-311h-202v-98h102v-412h-926v412h103v98h-203zM104 924h201v102h516v-102h201v200h-918v-200zM207 412h713v303h-103v205h-508v-205h-102v-303zM408 510v106h106v-106h-106zM408 715v106h106v-106h-106zM612 510v106h107v-106h-107z M612 715v106h107v-106h-107z" />
<glyph unicode="," horiz-adv-x="1433" d="M0 307v819h614v205h410v-205h102v-819h-1126zM102 922h205v102h-205v-102zM410 512h102v-102h307v102h103v307h-103v103h-307v-103h-102v-307zM717 1126h205v103h-205v-103z" />
<glyph unicode="-" horiz-adv-x="1228" d="M0 205v1126h719v-100h102v-103h101v-923h-922zM104 309h713v611h-307v307h-406v-918zM616 1026h201v98h-102v103h-99v-201z" />
<glyph unicode="." horiz-adv-x="1433" d="M0 408v720h104v-102h99v305h721v-100h102v-103h100v-923h-923v305h-99v-102h-104zM207 514h102v-205h713v611h-307v307h-406v-205h-102v-98h102v-103h103v-106h-103v-103h-102v-98zM821 1026h201v98h-102v103h-99v-201z" />
<glyph unicode="/" d="M0 205v1126h1231v-1126h-1231zM104 309h1020v918h-1020v-918zM203 408v106h102v205h103v205h102v204h209v-204h102v-205h103v-205h102v-106h-414v106h103v98h-303v-98h102v-106h-311zM514 719h98v201h-98v-201zM1329 1022v309h107v-100h100v-107h-100v-102h-107z" />
<glyph unicode="0" horiz-adv-x="1331" d="M0 408v106h100v102h103v103h102v102h414v-102h102v-103h103v-102h100v-106h-104v102h-103v102h-102v103h-99v-201h103v-102h102v-107h-205v-305h-208v305h-205v107h102v102h103v201h-99v-103h-102v-102h-103v-102h-104zM305 920v106h103v203h208v-203h103v-106h-414z" />
<glyph unicode="1" horiz-adv-x="1024" d="M0 612v516h100v103h205v98h-102v209h102v100h107v-100h102v-209h-102v-98h204v-103h101v-516h-101v-612h-516v612h-100zM104 616h103v-512h98v410h107v-410h98v512h102v508h-204v103h-99v-103h-205v-508zM309 1333h99v201h-99v-201z" />
<glyph unicode="2" horiz-adv-x="1024" d="M0 714v414h100v103h205v98h-102v209h102v100h107v-100h102v-209h-102v-98h204v-103h101v-414h-101v-409h-102v-305h-311v305h-103v409h-100zM104 718h103v-409h102v-205h99v205h102v409h102v406h-204v103h-99v-103h-205v-406zM309 1333h99v201h-99v-201z" />
<glyph unicode="3" horiz-adv-x="1945" d="M0 408v413h616v-307h99v102h102v103h103v102h413v-102h103v-103h102v-102h100v-106h-104v102h-102v102h-103v103h-98v-201h102v-102h103v-107h-205v-305h-209v305h-205v107h103v102h102v201h-98v-103h-103v-102h-102v-102h-209v307h-98v-715h-209v715h-99v-307h-104z M100 1124v107h103v100h209v-100h102v-107h-102v-204h-209v204h-103zM920 920v106h102v205h209v-205h102v-106h-413z" />
<glyph unicode="4" d="M0 612v516h100v103h205v98h-102v209h102v100h107v-100h102v-209h-102v-98h204v-103h103v-516h-103v-612h-516v612h-100zM104 616h103v-512h98v410h107v-410h98v512h102v508h-204v103h-99v-103h-205v-508zM309 1333h99v201h-99v-201zM817 715v413h103v103h204v98h-102v209 h102v100h107v-100h102v-209h-102v-98h205v-103h100v-413h-100v-410h-103v-305h-311v305h-102v410h-103zM924 719h102v-410h102v-205h99v205h102v410h103v405h-205v103h-99v-103h-204v-405zM1128 1333h99v201h-99v-201z" />
<glyph unicode="5" d="M0 510v516h100v205h103v102h102v103h205v100h516v-100h205v-103h102v-102h103v-205h100v-516h-100v-205h-103v-102h-102v-103h-205v-100h-516v100h-205v103h-102v102h-103v205h-100zM104 514h103v-205h102v-102h205v-103h508v99h-102v106h106v-102h201v102h102v99h-205 v204h-98v-102h-102v-102h-312v102h-102v102h-102v312h102v102h102v102h312v-102h102v-102h102v-308h103v-102h201v508h-99v-102h-106v106h102v201h-102v102h-205v103h-508v-103h-205v-102h-102v-201h102v-106h-106v102h-99v-508zM203 612v107h106v-107h-106zM408 305v107 h106v-107h-106zM408 1124v107h106v-107h-106zM514 616h102v-102h304v102h102v304h-102v102h-304v-102h-102v-304zM612 203v106h107v-106h-107zM715 1227v106h106v-106h-106zM1022 1124v107h106v-107h-106z" />
<glyph unicode="6" horiz-adv-x="1638" d="M0 305v1028h100v101h1028v-101h103v-102h100v-1026h-1231v100h-100zM104 309h200v307h104v103h516v-103h102v-306h201v917h-103v102h-98v-307h-102v-102h-516v102h-103v307h-201v-1020zM412 309h508v303h-508v-303zM412 1026h508v303h-99v-205h-106v205h-303v-303z" />
<glyph unicode="7" horiz-adv-x="1638" d="M0 102v1434h1231v-100h100v-1334h-1331zM104 207h99v98h-99v-98zM104 412h99v409h925v-614h99v1225h-99v-512h-925v512h-99v-1020zM309 207h713v508h-713v-508zM309 1026h99v406h-99v-406zM514 1026h508v406h-508v-406zM715 1124v209h209v-209h-209z" />
<glyph unicode="8" horiz-adv-x="1740" d="M0 203v1333h1434v-1434h-1334v101h-100zM309 821h815v611h-815v-611zM924 207h200v303h-200v-303zM1231 1333h98v99h-98v-99z" />
<glyph unicode="9" d="M0 203v618h100v103h103v102h102v205h103v205h102v100h926v-207h-103v-201h103v-102h100v-618h-100v-103h-103v-102h-102v-101h-1131v101h-100zM104 207h1020v405h-1020v-405zM104 719h1020v98h-1020v-98zM203 408v106h106v-106h-106zM309 924h815v204h103v205h102v99 h-815v-205h-102v-205h-103v-98zM510 1022v106h516v-106h-516zM612 1227v106h516v-106h-516zM715 305v107h106v-107h-106zM920 305v107h106v-107h-106zM1231 309h98v103h103v405h-99v-102h-102v-406zM1231 821h98v103h103v98h-201v-201z" />
<glyph unicode=":" d="M0 205v1126h1229v-1126h-1229zM102 307h1024v922h-1024v-922zM205 410v102h205v-102h-205zM205 614v103h205v-103h-205zM205 819v103h102v-103h-102zM205 1024v102h307v-102h-307zM410 819v103h204v-103h-204zM512 410v102h102v-102h-102zM512 614v103h307v-103h-307z M614 1024v102h103v-102h-103zM717 410v102h307v-102h-307zM717 819v103h307v-103h-307zM819 1024v102h205v-102h-205zM922 614v103h102v-103h-102zM1331 1024v307h103v-102h102v-103h-102v-102h-103z" />
<glyph unicode=";" d="M0 205v1126h1231v-1126h-1231zM104 309h304v103h106v-103h303v103h103v98h-103v106h103v99h-103v106h103v99h-103v106h103v98h-103v103h-303v-103h-106v103h-304v-918zM408 510v106h106v-106h-106zM408 715v106h106v-106h-106zM408 920v106h106v-106h-106zM612 408v106 h107v-106h-107zM612 612v107h107v-107h-107zM612 817v107h107v-107h-107zM612 1022v106h107v-106h-107zM924 309h98v99h-98v-99zM924 514h98v98h-98v-98zM924 719h98v98h-98v-98zM924 924h98v98h-98v-98zM924 1128h98v99h-98v-99zM1329 1022v309h107v-100h100v-107h-100 v-102h-107z" />
<glyph unicode="&#x3c;" d="M0 205v1126h1229v-1126h-1229zM102 307h1024v922h-1024v-922zM205 410v102h102v-102h-102zM205 614v103h102v-103h-102zM205 819v103h102v-103h-102zM410 410v102h614v-102h-614zM410 614v103h614v-103h-614zM410 819v103h614v-103h-614zM1331 1024v307h103v-102h102 v-103h-102v-102h-103z" />
<glyph unicode="=" horiz-adv-x="1228" d="M0 205v1126h922v-1126h-922zM102 307h717v922h-717v-922zM205 410v102h205v-102h-205zM205 614v103h307v-103h-307zM205 819v103h102v-103h-102zM205 1024v102h205v-102h-205zM410 819v103h204v-103h-204zM512 410v102h205v-102h-205zM512 1024v102h205v-102h-205z M614 614v103h103v-103h-103z" />
<glyph unicode="&#x3e;" horiz-adv-x="1433" d="M0 408v720h104v-102h99v305h923v-1126h-923v305h-99v-102h-104zM207 514h102v-205h713v918h-713v-205h-102v-98h102v-103h99v103h106v-107h-102v-98h307v-107h-311v103h-99v-103h-102v-98zM408 408v106h208v-106h-208zM408 1022v106h208v-106h-208zM612 817v107h209v-107 h-209zM715 408v106h209v-106h-209zM715 1022v106h209v-106h-209zM817 612v107h107v-107h-107z" />
<glyph unicode="?" horiz-adv-x="1638" d="M0 203v1128h616v-100h99v100h616v-1128h-510v-101h-311v101h-510zM104 309h512v-102h99v102h512v918h-508v-205h-107v205h-508v-918zM203 408v106h311v-106h-311zM203 612v107h311v-107h-311zM203 817v107h311v-107h-311zM203 1022v106h311v-106h-311zM612 408v106h107 v-106h-107zM612 612v107h107v-107h-107zM612 817v107h107v-107h-107zM817 408v106h311v-106h-311zM817 612v107h311v-107h-311zM817 817v107h311v-107h-311zM817 1022v106h311v-106h-311z" />
<glyph unicode="@" horiz-adv-x="1740" d="M0 203v1130h100v103h103v100h1028v-100h102v-103h101v-1130h-101v-103h-102v-100h-1028v100h-103v103h-100zM104 207h103v-103h1020v103h102v1122h-102v103h-1020v-103h-103v-1122zM203 510v516h102v205h205v102h414v-102h204v-205h103v-414h-103v-102h-311v102h-98v-102 h-209v102h-102v312h102v102h209v-102h98v102h107v-410h200v406h-102v102h-102v103h-406v-103h-102v-102h-103v-508h103v-102h102v-103h410v-106h-414v102h-205v205h-102zM616 616h99v304h-99v-304z" />
<glyph unicode="A" horiz-adv-x="1331" d="M0 819v512h512v-512h-512zM102 922h308v307h-308v-307zM307 205v512h512v-512h-512zM410 307h307v307h-307v-307zM614 819v410h410v-410h-410zM717 922h205v204h-205v-204z" />
<glyph unicode="B" d="M0 817v107h100v204h103v103h102v102h307v103h103v100h311v-100h205v-103h102v-102h103v-103h100v-311h-100v-102h-410v-408h-106v408h-99v-408h-106v408h-99v-408h-106v408h-98v-408h-107v408h-205v102h-100zM104 821h1328v303h-103v103h-102v102h-205v103h-303v-103 h-103v-98h103v-107h-107v103h-303v-103h-102v-204h-103v-99z" />
<glyph unicode="C" d="M0 817v107h100v204h103v103h102v102h307v103h103v100h311v-100h205v-103h102v-102h103v-103h100v-311h-100v-102h-1024v-99h102v-106h-102v-102h-107v102h-102v106h102v99h-205v102h-100zM104 821h1328v303h-103v103h-102v102h-205v103h-303v-103h-103v-98h103v-107h-107 v103h-303v-103h-102v-204h-103v-99zM309 514h99v98h-99v-98zM612 203v209h103v102h209v-102h102v-209h-102v-101h-209v101h-103zM719 207h201v201h-201v-201zM1124 408v106h103v102h106v-102h103v-106h-103v-103h-106v103h-103zM1231 412h98v98h-98v-98z" />
<glyph unicode="D" d="M0 817v107h100v204h103v103h102v102h307v103h103v100h311v-100h205v-103h102v-102h103v-103h100v-311h-100v-100h-1336v100h-100zM104 821h1328v303h-103v103h-102v102h-205v103h-303v-103h-103v-98h103v-107h-107v103h-303v-103h-102v-204h-103v-99z" />
<glyph unicode="E" horiz-adv-x="1945" d="M0 1636v107h309v-103h99v103h102v102h311v-102h103v-103h98v103h311v-107h-307v-98h102v-102h205v-103h103v-102h102v-103h100v-311h-100v-100h-1335v100h-103v107h103v204h102v103h103v201h-103v204h-305zM100 2046v106h107v-102h102v-102h103v-107h-107v103h-102v102 h-103zM207 821h1327v303h-102v103h-103v102h-205v103h-303v-103h-102v-98h102v-107h-106v103h-303v-103h-103v-204h-102v-99zM412 1436h102v-103h201v103h102v102h103v98h-103v103h-303v-103h-102v-200zM612 1944v309h107v-309h-107zM920 1841v107h102v102h102v102h107v-106 h-103v-102h-102v-103h-106z" />
<glyph unicode="F" d="M0 817v107h100v204h103v103h102v102h307v103h103v100h311v-100h205v-103h102v-102h103v-103h100v-311h-100v-102h-308v-103h-102v-98h102v-106h-102v-103h-102v-102h-103v-103h-102v-100h-107v305h-102v410h-410v102h-100zM104 821h1328v303h-103v103h-102v102h-205v103 h-303v-103h-103v-98h103v-107h-107v103h-303v-103h-102v-204h-103v-99zM616 412h103v-205h98v102h103v99h-103v106h103v102h102v99h-406v-303z" />
<glyph unicode="G" horiz-adv-x="1433" d="M0 410v102h1126v-102h-1126zM0 614v103h1126v-103h-1126zM0 819v103h1126v-103h-1126zM0 1024v102h1126v-102h-1126z" />
<glyph unicode="H" d="M0 715v106h207v-106h-207zM100 100v107h103v102h106v-106h-102v-103h-107zM100 1329v107h107v-103h102v-106h-106v102h-103zM305 612v312h103v204h204v103h312v-103h204v-204h103v-312h-103v-204h-204v-103h-312v103h-204v204h-103zM412 616h102v-102h102v-102h304v102 h102v102h102v304h-102v102h-102v102h-304v-102h-102v-102h-102v-304zM715 0v207h106v-207h-106zM715 1329v207h106v-207h-106zM1227 203v106h106v-102h103v-107h-107v103h-102zM1227 1227v106h102v103h107v-107h-103v-102h-106zM1329 715v106h207v-106h-207z" />
<glyph unicode="I" horiz-adv-x="1536" d="M0 612v414h100v205h103v102h205v101h413v-101h205v-102h102v-205h101v-414h-101v-204h-102v-103h-205v-100h-413v100h-205v103h-103v204h-100zM104 616h103v-204h205v-103h405v103h205v204h102v406h-102v205h-205v102h-405v-102h-205v-205h-103v-406z" />
<glyph unicode="J" horiz-adv-x="1331" d="M0 612v414h100v205h103v102h205v101h413v-101h203v-106h-203v-205h-102v-406h102v-204h203v-107h-203v-100h-413v100h-205v103h-103v204h-100zM104 616h103v-204h205v-103h405v99h-102v204h-103v414h103v205h102v98h-405v-102h-205v-205h-103v-406z" />
<glyph unicode="K" horiz-adv-x="1024" d="M0 612v414h100v205h103v102h205v101h309v-1229h-309v100h-205v103h-103v204h-100zM104 616h103v-204h205v-103h200v1020h-200v-102h-205v-205h-103v-406z" />
<glyph unicode="L" horiz-adv-x="1126" d="M0 612v414h100v205h103v102h205v101h411v-105h-100v-102h-103v-205h-102v-406h102v-204h103v-103h100v-104h-411v100h-205v103h-103v204h-100zM104 616h103v-204h205v-103h200v99h-102v204h-102v414h102v205h102v98h-200v-102h-205v-205h-103v-406z" />
<glyph unicode="M" horiz-adv-x="1433" d="M0 717v205h102v-103h820v103h-103v102h103v-102h102v-103h102v-102h-102v-103h-102v103h-922zM819 512v102h103v-102h-103z" />
<glyph unicode="N" horiz-adv-x="1433" d="M0 717v205h102v-103h103v103h102v-103h615v103h-103v102h103v-102h102v-103h102v-102h-102v-103h-102v103h-922zM819 512v102h103v-102h-103z" />
<glyph unicode="O" horiz-adv-x="1433" d="M0 717v205h102v-103h103v103h100v-103h105v103h99v-103h413v103h-103v102h103v-102h102v-103h102v-102h-102v-103h-102v103h-922zM819 512v102h103v-102h-103z" />
<glyph unicode="P" horiz-adv-x="1638" d="M0 307v821h408v103h102v100h311v-100h103v-103h407v-821h-1331zM104 412h918v610h-918v-610zM514 1128h303v99h-303v-99zM1128 412h99v610h-99v-610z" />
<glyph unicode="Q" horiz-adv-x="1638" d="M0 307v821h408v103h102v100h311v-100h103v-103h407v-821h-1331zM104 412h918v610h-918v-610zM408 817v107h311v-107h-103v-307h-106v307h-102zM514 1128h303v99h-303v-99zM1128 412h99v610h-99v-610z" />
<glyph unicode="R" horiz-adv-x="1638" d="M0 307v821h408v103h102v100h311v-100h103v-103h407v-821h-1331zM104 412h918v610h-918v-610zM203 510v106h106v-106h-106zM408 510v106h106v-106h-106zM514 1128h303v99h-303v-99zM612 510v106h107v-106h-107zM817 510v106h107v-106h-107zM1128 412h99v610h-99v-610z" />
<glyph unicode="S" horiz-adv-x="1638" d="M0 307v821h408v103h102v100h311v-100h103v-103h407v-821h-1331zM104 412h918v610h-918v-610zM408 510v414h311v-312h-205v-102h-106zM514 719h98v98h-98v-98zM514 1128h303v99h-303v-99zM1128 412h99v610h-99v-610z" />
<glyph unicode="T" horiz-adv-x="1945" d="M0 612v312h100v102h103v102h102v103h307v102h103v101h311v-101h102v-102h410v-103h100v-413h-100v-410h-102v-100h-1233v100h-103v307h-100zM104 719h103v-307h102v-103h918v303h-103v308h-1020v-201zM309 1026h819v-102h103v-205h102v-410h99v512h102v303h-1225v-98z M719 1231h303v98h-303v-98z" />
<glyph unicode="U" horiz-adv-x="1638" d="M0 920v311h309v-103h99v410h204v100h312v-100h204v-102h103v-103h100v-618h-100v-103h-103v-200h103v-205h100v-207h-1128v207h102v205h103v200h-103v103h-102v102h-103v103h-100zM104 1026h103v-102h102v-103h103v-102h102v-103h508v103h102v102h103v508h-99v-307h-106 v410h-98v-308h-107v410h-98v-410h-107v308h-98v-410h-209v102h-201v-98zM309 104h508v304h-102v102h-201v-102h-102v-205h-103v-99zM612 203v106h107v-106h-107zM821 412h103v-308h303v99h-103v205h-102v102h-201v-98z" />
<glyph unicode="V" horiz-adv-x="1536" d="M0 510v311h207v-102h98v717h103v100h106v-100h102v-410h308v-102h204v-103h101v-618h-101v-103h-102v-100h-618v100h-103v103h-102v102h-103v205h-100zM104 514h103v-205h102v-102h103v-103h610v103h102v201h-508v-103h-106v103h-102v102h-103v102h-102v103h-99v-201z M412 514h98v918h-98v-918zM616 514h99v406h-99v-406zM821 514h99v406h-99v-406zM1026 514h98v303h-98v-303z" />
<glyph unicode="W" d="M0 408v618h100v102h103v103h102v102h205v101h311v-207h-102v-99h717v-102h100v-106h-100v-103h-410v-307h-102v-205h-103v-100h-618v100h-103v103h-100zM104 412h103v-103h201v508h-103v107h103v102h102v102h102v103h103v98h-201v-102h-205v-103h-102v-102h-103v-610z M514 309h303v99h-303v-99zM514 514h406v98h-406v-98zM514 719h406v98h-406v-98zM514 924h918v98h-918v-98z" />
<glyph unicode="X" d="M0 920v106h100v102h717v99h-102v207h311v-101h205v-102h102v-103h103v-102h100v-618h-100v-103h-103v-100h-618v100h-103v205h-102v307h-410v103h-100zM104 924h918v98h-918v-98zM616 514h406v98h-406v-98zM616 719h406v98h-406v-98zM719 309h303v99h-303v-99zM821 1231 h103v-103h102v-102h102v-102h103v-107h-103v-508h201v103h103v610h-103v102h-102v103h-205v102h-201v-98z" />
<glyph unicode="Y" horiz-adv-x="1536" d="M0 715v311h100v205h103v102h102v103h103v100h618v-100h102v-103h101v-618h-101v-103h-204v-102h-308v-410h-102v-100h-106v100h-103v717h-98v-102h-207zM104 821h99v103h102v102h103v102h102v103h106v-103h508v201h-102v103h-610v-103h-103v-102h-102v-205h-103v-201z M412 104h98v918h-98v-918zM616 616h99v406h-99v-406zM821 616h99v406h-99v-406zM1026 719h98v303h-98v-303z" />
<glyph unicode="Z" horiz-adv-x="1945" d="M0 102v924h100v102h312v-102h716v-307h510v-107h-100v-102h-102v-102h-103v-103h-102v-102h-103v-101h-1128zM104 412h99v98h-99v-98zM104 616h99v99h-99v-99zM104 821h99v99h-99v-99zM207 514h98v98h-98v-98zM207 719h98v98h-98v-98zM207 924h98v98h-98v-98zM309 616h99 v99h-99v-99zM309 821h99v99h-99v-99zM412 719h98v98h-98v-98zM514 821h98v99h-98v-99zM616 719h99v98h-99v-98zM719 821h98v99h-98v-99zM817 1227v106h103v101h311v-101h102v-102h99v102h106v-311h-311v106h102v99h-102v102h-303v-102h-107zM821 719h99v98h-99v-98zM924 821 h98v99h-98v-99z" />
<glyph unicode="[" horiz-adv-x="1740" d="M0 817v414h100v205h205v100h414v-100h205v-205h102v-414h-102v-98h102v-103h102v-102h103v-102h102v-103h101v-106h-101v-101h-106v101h-103v102h-102v103h-102v102h-103v102h-98v-102h-414v102h-205v205h-100zM104 821h103v-102h102v-103h406v103h102v102h103v406h-103 v102h-102v103h-406v-103h-102v-102h-103v-406z" />
<glyph unicode="\" horiz-adv-x="1740" d="M0 408v106h100v102h103v103h102v102h103v103h102v102h102v102h103v103h102v102h103v103h102v100h106v-100h103v-103h102v-102h101v-107h-101v-102h-102v-102h-103v-103h-102v-102h-102v-103h-103v-102h-102v-102h-103v-103h-102v-102h-102v-101h-107v101h-102v102h-103 v103h-100zM104 412h103v-103h102v-102h99v102h102v103h102v102h103v102h102v103h103v102h102v103h102v102h103v102h102v99h-102v102h-103v103h-98v-103h-102v-98h102v-107h-106v103h-99v-103h-102v-98h102v-106h-106v102h-99v-102h-102v-99h102v-106h-106v102h-98v-102h-103 v-99h103v-106h-107v102h-98v-102h-103v-98z" />
<glyph unicode="]" horiz-adv-x="1740" d="M0 0v1538h203v100h106v-100h201v100h106v-100h201v100h107v-100h200v100h107v-100h203v-1538h-1434zM104 104h201v99h-102v102h-99v-201zM104 514h410v-410h815v99h-717v106h717v99h-717v106h717v98h-1225v-98zM104 719h1225v98h-1225v-98zM104 924h1225v98h-1225v-98z M104 1128h1225v304h-98v-103h-107v103h-200v-103h-107v103h-201v-103h-106v103h-201v-103h-106v103h-99v-304zM207 309h102v-102h99v201h-201v-99z" />
<glyph unicode="^" horiz-adv-x="1740" d="M0 0v1538h203v100h106v-100h201v100h106v-100h201v100h107v-100h200v100h107v-100h203v-1538h-1434zM104 104h1225v99h-921v102h-103v103h-102v102h-99v-406zM104 719h410v-410h815v1123h-98v-103h-107v103h-200v-103h-107v103h-201v-103h-106v103h-201v-103h-106v103 h-99v-713zM207 514h102v-102h99v200h-201v-98z" />
<glyph unicode="_" horiz-adv-x="1024" d="M0 715v413h100v304h-100v104h717v-104h-101v-304h101v-413h-101v-205h-102v-205h-102v-203h-107v203h-102v205h-103v205h-100zM104 719h103v-205h98v410h107v-410h98v205h102v303h-102v205h-303v-205h-103v-303zM309 309h99v201h-99v-201z" />
<glyph unicode="`" horiz-adv-x="921" d="M0 205v1126h104v-101h103v-102h102v-102h103v-102h102v-103h100v-106h-100v-103h-102v-102h-103v-102h-102v-103h-103v-100h-104zM104 412h99v102h102v102h103v103h102v98h-102v103h-103v102h-102v102h-99v-712z" />
<glyph unicode="a" horiz-adv-x="1945" d="M0 612v312h100v102h103v102h102v101h721v-101h102v-102h103v-102h307v-103h100v-209h-202v-102h-103v-100h-209v100h-102v102h-508v-102h-102v-100h-209v100h-103v102h-100zM207 514h201v98h-201v-98zM412 924h712v98h-102v102h-508v-102h-102v-98zM1128 514h201v98h-201 v-98z" />
<glyph unicode="b" horiz-adv-x="1740" d="M0 305v209h100v102h103v205h106v-102h99v102h102v103h102v612h209v-612h103v-103h102v-102h98v102h107v-205h102v-102h101v-209h-207v103h-205v102h-102v102h-99v-405h103v-103h102v-104h-209v100h-201v-100h-208v104h102v103h102v405h-98v-102h-102v-102h-205v-103h-207 z" />
<glyph unicode="c" d="M0 1329v105h207v-101h102v-102h1227v-107h-100v-307h-103v-205h-921v-200h921v-103h103v-106h-103v-101h-209v101h-102v102h-406v-102h-102v-101h-209v101h-102v106h102v815h-102v103h-103v102h-100zM309 207h201v98h-201v-98zM412 719h815v205h102v200h-917v-405z M1128 207h201v98h-201v-98z" />
<glyph unicode="d" horiz-adv-x="1536" d="M0 102v205h102v103h103v102h102v-102h103v921h204v103h308v102h204v102h103v-1228h-103v-103h-307v103h-102v204h102v103h103v102h102v-102h102v512h-204v-103h-205v-102h-205v-922h-102v-102h-308v102h-102z" />
<glyph unicode="e" d="M0 0v205h102v102h1332v-102h102v-205h-1536zM102 512v922h103v102h1126v-102h103v-922h-103v-102h-1126v102h-103zM307 102h103v103h-103v-103zM307 614h922v717h-922v-717zM512 102h102v103h-102v-103zM717 102h102v103h-102v-103z" />
<glyph unicode="f" horiz-adv-x="1638" d="M0 1331v103h1331v-103h-102v-102h-103v-103h-102v-102h-102v-102h-103v-103h-102v-512h102v-102h205v-103h-717v103h205v102h102v512h-102v103h-102v102h-103v102h-102v103h-103v102h-102z" />
<glyph unicode="g" horiz-adv-x="1638" d="M0 410v204h102v103h103v102h-103v103h-102v204h102v103h308v-103h102v205h102v103h308v-103h102v-205h-102v-102h307v-102h102v-205h-102v-103h-205v-102h102v-205h-102v-102h-307v102h-103v205h-102v-102h-102v-103h-308v103h-102zM512 717h205v205h-205v-205z" />
<glyph unicode="h" d="M0 612v209h100v103h103v102h102v102h103v103h102v102h102v101h414v-101h98v101h312v-101h100v-209h-100v-102h-107v106h103v201h-304v-98h103v-414h-103v-102h-102v-103h-102v-102h-103v-102h-102v-103h-103v-100h-208v100h-103v103h-102v102h-103v102h-100zM821 1128h99 v99h-99v-99zM924 1026h98v98h-98v-98zM924 1231h98v98h-98v-98zM1026 1128h98v99h-98v-99z" />
<glyph unicode="i" d="M0 1024v102h102v103h103v102h102v103h307v-103h308v103h307v-103h102v-102h103v-103h102v-102h-102v-102h-103v-103h-102v103h-103v-820h-716v820h-103v-103h-102v103h-103v102h-102z" />
<glyph unicode="j" horiz-adv-x="1740" d="M0 102v1026h612v99h-102v102h-102v103h-103v104h107v-100h102v-103h102v-102h99v102h102v103h103v100h106v-104h-102v-103h-103v-102h-102v-99h614v-102h101v-924h-1434zM104 207h1020v815h-1020v-815zM1231 616h98v99h-98v-99zM1231 821h98v99h-98v-99z" />
<glyph unicode="k" horiz-adv-x="1433" d="M0 1227v104h1126v-104h-100v-512h-410v-303h205v-103h103v-104h-107v100h-508v-100h-106v104h102v103h205v303h-410v512h-100zM207 821h713v406h-713v-406z" />
<glyph unicode="l" horiz-adv-x="1024" d="M0 305v926h100v102h512v203h105v-1231h-101v-100h-516v100h-100zM104 309h508v918h-508v-918zM203 408v106h106v-106h-106zM203 612v107h106v-107h-106zM203 920v208h311v-208h-311zM408 408v106h106v-106h-106zM408 612v107h106v-107h-106z" />
<glyph unicode="m" horiz-adv-x="1945" d="M0 305v107h100v98h-100v106h100v99h-100v106h100v99h-100v106h100v98h-100v107h100v203h1538v-1332h-1538v203h-100zM207 207h1330v1122h-1330v-98h102v-107h-102v-98h102v-106h-102v-99h102v-106h-102v-99h102v-106h-102v-98h102v-107h-102v-98zM510 408v106h102v205 h103v205h102v204h210v-204h102v-205h101v-205h103v-106h-413v106h102v96h-304v-96h103v-106h-311zM821 719h99v201h-99v-201z" />
<glyph unicode="n" horiz-adv-x="1945" d="M0 307v103h102v102h-102v102h102v103h-102v102h102v103h-102v102h102v102h-102v103h102v205h1536v-1332h-1536v205h-102zM205 205h1331v1126h-1331v-102h102v-103h-102v-102h102v-102h-102v-103h102v-102h-102v-103h102v-102h-102v-102h102v-103h-102v-102zM614 410v102 h717v-102h-717zM614 614v103h717v-103h-717zM614 819v103h717v-103h-717zM614 1024v102h717v-102h-717z" />
<glyph unicode="o" horiz-adv-x="1945" d="M0 307v103h102v102h-102v102h102v103h-102v102h102v103h-102v102h102v102h-102v103h102v205h1536v-1332h-1536v205h-102zM205 205h1331v1126h-1331v-102h102v-103h-102v-102h102v-102h-102v-103h102v-102h-102v-103h102v-102h-102v-102h102v-103h-102v-102zM614 410v102 h205v-102h-205zM614 614v103h308v-103h-308zM614 819v103h103v-103h-103zM614 1024v102h512v-102h-512zM819 819v103h512v-103h-512zM922 410v102h102v-102h-102zM1024 614v103h307v-103h-307zM1126 410v102h205v-102h-205zM1229 1024v102h102v-102h-102z" />
<glyph unicode="p" horiz-adv-x="1945" d="M0 305v1028h100v103h410v100h414v-100h409v-103h103v-614h102v-103h100v-514h-1026v101h-512v102h-100zM104 309h508v615h717v405h-303v-98h102v-209h-823v209h103v98h-304v-1020zM412 1128h610v99h-102v102h-99v-102h-209v102h-98v-102h-102v-99zM616 1333h201v99h-201 v-99zM719 207h815v303h-307v307h-508v-610zM817 305v107h619v-107h-619zM817 510v106h311v-106h-311zM1333 616h99v99h-99v-99z" />
<glyph unicode="q" d="M0 307v617h100v102h103v102h102v103h103v100h1128v-719h-100v-102h-103v-102h-102v-101h-1231zM104 412h1020v405h-303v-102h-102v-103h-209v103h-102v102h-304v-405zM207 924h205v-103h102v-102h201v102h102v103h307v102h103v102h102v99h-917v-103h-103v-102h-102v-98z M1231 514h98v102h103v508h-99v-102h-102v-508z" />
<glyph unicode="r" horiz-adv-x="1433" d="M0 102v1434h1126v-1434h-1126zM102 205h922v1229h-922v-1229zM205 307v103h102v-103h-102zM205 512v102h102v-102h-102zM205 717v102h102v-102h-102zM205 922v409h717v-409h-717zM307 1024h512v205h-512v-205zM410 307v103h102v-103h-102zM410 512v102h102v-102h-102z M410 717v102h102v-102h-102zM614 307v103h103v-103h-103zM614 512v102h103v-102h-103zM614 717v102h103v-102h-103zM819 307v307h103v-307h-103zM819 717v102h103v-102h-103z" />
<glyph unicode="s" d="M0 205v1128h100v103h103v100h209v-100h102v-103h819v-102h103v-307h100v-312h-100v-204h-103v-203h-1333zM104 309h1123v103h102v204h103v201h-1123v-205h-102v-204h-103v-99zM104 616h99v308h1126v303h-819v102h-102v103h-201v-103h-103v-713z" />
<glyph unicode="t" d="M0 205v923h100v101h414v-101h717v-102h100v-102h205v-209h-100v-205h-103v-205h-102v-100h-1231zM104 412h99v204h102v205h103v103h819v98h-717v102h-406v-712zM207 309h1020v205h102v205h103v98h-1020v-205h-103v-204h-102v-99z" />
<glyph unicode="u" d="M0 715v209h100v102h209v-102h99v614h102v100h209v-100h102v-309h410v-101h205v-102h100v-513h-100v-310h-103v-203h-823v203h-102v102h-103v103h-102v204h-103v103h-100zM104 719h103v-103h102v-204h103v-103h102v-102h102v-103h611v103h102v409h103v406h-99v-102h-106 v204h-99v-204h-106v204h-201v-204h-106v614h-201v-819h-106v102h-103v103h-201v-201zM715 305v414h106v-414h-106zM920 305v414h106v-414h-106zM1124 305v414h107v-414h-107z" />
<glyph unicode="v" horiz-adv-x="1536" d="M0 510v311h207v-102h98v717h103v100h106v-100h102v-512h512v-103h101v-721h-101v-100h-720v100h-103v103h-102v102h-103v205h-100zM104 514h103v-205h102v-102h103v-103h712v713h-98v-205h-106v205h-99v-205h-106v205h-99v-205h-106v820h-98v-922h-107v102h-102v103h-99 v-201z" />
<glyph unicode="w" d="M0 305v721h100v102h103v103h102v102h205v101h311v-207h-102v-99h717v-102h100v-106h-100v-103h-512v-512h-103v-100h-721v100h-100zM104 309h713v99h-205v106h205v98h-205v107h205v98h-205v107h820v98h-922v106h102v103h103v98h-201v-102h-205v-103h-102v-102h-103v-713z " />
<glyph unicode="x" d="M0 920v106h100v102h717v99h-102v207h311v-101h205v-102h102v-103h103v-102h100v-721h-100v-100h-721v100h-103v512h-512v103h-100zM104 924h820v-107h-205v-98h205v-107h-205v-98h205v-106h-205v-99h713v713h-103v102h-102v103h-205v102h-201v-98h103v-103h102v-106h-922 v-98z" />
<glyph unicode="y" horiz-adv-x="1536" d="M0 715v311h100v205h103v102h102v103h103v100h720v-100h101v-721h-101v-103h-512v-512h-102v-100h-106v100h-103v717h-98v-102h-207zM104 821h99v103h102v102h107v-922h98v820h106v-205h99v205h106v-205h99v205h106v-205h98v713h-712v-103h-103v-102h-102v-205h-103v-201z " />
<glyph unicode="z" horiz-adv-x="1945" d="M0 305v1028h100v101h1438v-101h100v-1028h-100v-100h-1438v100h-100zM104 309h96v205h105v102h1028v-102h102v-205h99v1020h-1430v-1020zM305 817v209h103v102h208v-102h406v102h209v-102h102v-209h-102v-102h-823v102h-103zM309 309h100v103h105v-103h611v103h106v-103 h98v201h-1020v-201zM412 821h200v201h-200v-201zM719 821h201v99h-201v-99zM1026 821h201v201h-201v-201z" />
<glyph unicode="{" horiz-adv-x="1433" d="M0 305v1028h100v101h926v-101h100v-1028h-100v-203h-926v203h-100zM104 309h918v1020h-918v-1020zM203 408v106h106v-106h-106zM203 612v619h721v-619h-721zM309 719h508v405h-508v-405zM510 408v106h414v-106h-414z" />
<glyph unicode="|" horiz-adv-x="1024" d="M0 408v618h104v-614h103v-103h303v103h102v815h-303v-713h99v512h106v-516h-102v-102h-107v102h-102v721h102v100h311v-100h101v-823h-101v-103h-102v-100h-311v100h-103v103h-100z" />
<glyph unicode="}" d="M0 510v516h100v205h103v102h102v103h205v100h516v-100h205v-103h102v-102h103v-205h100v-516h-100v-205h-103v-102h-102v-103h-205v-100h-516v100h-205v103h-102v102h-103v205h-100zM104 514h99v201h-99v-201zM104 821h99v201h-99v-201zM207 412h98v98h-98v-98zM207 1026 h98v98h-98v-98zM309 207h99v98h-99v-98zM309 514h103v-102h303v303h-406v-201zM309 821h406v303h-303v-102h-103v-201zM309 1231h99v98h-99v-98zM514 207h102v-103h99v201h-201v-98zM514 1231h201v201h-99v-103h-102v-98zM821 104h99v103h102v98h-201v-201zM821 412h303v102 h103v201h-406v-303zM821 821h406v201h-103v102h-303v-303zM821 1231h201v98h-102v103h-99v-201zM1128 207h99v98h-99v-98zM1128 1231h99v98h-99v-98zM1231 412h98v98h-98v-98zM1231 1026h98v98h-98v-98zM1333 514h99v508h-99v-508z" />
<glyph unicode="~" horiz-adv-x="1638" d="M0 205v104h100v512h103v205h409v102h103v99h-103v106h103v103h205v100h106v-104h-102v-99h102v-106h-102v-103h-205v-98h409v-205h103v-512h100v-104h-1331zM207 309h98v201h-98v-201zM207 616h98v99h-98v-99zM309 821h99v99h-99v-99zM412 309h98v406h-98v-406zM514 821 h98v99h-98v-99zM616 309h99v406h-99v-406zM719 821h98v99h-98v-99zM719 1231h201v98h-201v-98zM821 309h99v406h-99v-406zM924 821h98v99h-98v-99zM1026 309h98v201h-98v-201zM1026 616h98v99h-98v-99z" />
<glyph unicode="&#xa1;" horiz-adv-x="1024" d="M0 102v1434h205v102h309v-102h203v-1434h-103v-102h-511v102h-103zM102 821h512v613h-512v-613zM205 307h307v103h-307v-103zM205 1126v103h102v102h103v-102h102v-103h-102v-102h-103v102h-102z" />
<glyph unicode="&#xa2;" horiz-adv-x="1228" d="M0 920v106h100v102h103v101h106v-105h-102v-98h614v-106h-614v-99h102v-106h-106v102h-103v103h-100zM100 510v106h615v99h-103v106h107v-102h102v-103h101v-106h-101v-102h-102v-101h-107v105h103v98h-615z" />
<glyph unicode="&#xa3;" d="M0 205v309h203v102h205v103h204v102h103v99h-103v102h-102v209h102v100h312v-100h102v-209h-106v205h-304v-201h205v-205h103v-102h204v-103h205v-102h203v-309h-1536zM104 309h1328v99h-205v102h-205v102h-205v103h-98v-103h-205v-102h-205v-102h-205v-99z" />
<glyph unicode="&#xa4;" horiz-adv-x="1945" d="M0 0v104h100v103h107v-103h98v103h107v-103h98v103h106v-103h99v103h106v-103h99v103h102v98h-102v103h-103v102h-102v102h-103v103h-102v102h-102v103h-103v102h-102v209h102v102h103v103h102v100h106v-100h103v-103h102v-102h103v-107h-103v-98h103v-102h102v-103h102 v-102h99v102h106v-102h103v-103h102v-102h100v-106h-100v-103h-102v-102h-103v-103h-209v103h-98v-103h-102v-100h-107v100h-98v-100h-107v100h-98v-100h-106v100h-99v-100h-106v100h-99v-100h-104zM309 1026h103v-102h102v-103h102v-102h103v-103h102v-102h103v-102h102 v-103h102v-102h201v98h-102v103h-103v102h-102v102h-102v103h-103v102h-102v103h-103v102h-102v102h-102v103h-99v-201zM412 1231h102v-103h102v-102h99v102h102v99h-102v102h-103v103h-98v-103h-102v-98zM719 924h98v98h-98v-98zM821 821h99v99h-99v-99zM924 719h98v98h-98 v-98zM1026 616h98v99h-98v-99zM1128 514h103v-102h102v-103h99v103h102v98h-102v102h-103v103h-98v-103h-103v-98z" />
<glyph unicode="&#xa5;" horiz-adv-x="1433" d="M0 307v207h100v205h103v205h102v204h103v203h208v-100h103v-103h102v-102h103v-102h102v-103h100v-106h-104v102h-102v103h-103v102h-102v102h-99v-200h103v-205h102v-205h103v-207h-924zM104 412h713v98h-102v205h-103v205h-102v204h-98v-204h-103v-205h-102v-205h-103 v-98zM514 1128h98v99h-98v-99zM1022 307v105h104v-105h-104zM1022 510v106h104v-106h-104z" />
<glyph unicode="&#xa6;" horiz-adv-x="1740" d="M0 408v1128h1434v-1128h-1022v-103h-103v-102h-102v-101h-107v306h-100zM104 514h103v-205h98v103h103v102h921v918h-1225v-918zM203 612v107h311v-107h-311zM203 817v107h721v-107h-721zM203 1022v106h209v-106h-209zM203 1227v106h618v-106h-618zM510 1022v106h721 v-106h-721zM612 612v107h619v-107h-619zM920 1227v106h311v-106h-311zM1022 817v107h209v-107h-209z" />
<glyph unicode="&#xa7;" horiz-adv-x="1331" d="M0 1024v614h102v-409h103v409h102v-409h103v409h102v-614h-102v-1024h-308v1024h-102zM614 614v922h103v102h307v-1638h-307v614h-103z" />
<glyph unicode="&#xa8;" horiz-adv-x="1638" d="M0 307v105h100v102h103v102h102v103h103v102h102v103h102v102h103v102h102v101h107v-105h-103v-98h205v-106h-102v-99h102v-102h102v-209h-106v205h-102v102h-99v-102h-106v205h-99v-103h-102v-102h-102v-103h-103v-102h-102v-98h1124v-105h-1331z" />
<glyph unicode="&#xa9;" horiz-adv-x="1945" d="M0 102v105h100v102h103v99h-103v102h-100v106h100v103h103v98h-103v103h-100v106h100v102h103v99h-103v102h-100v105h1638v-105h-100v-102h-102v-99h102v-102h100v-106h-100v-103h-102v-98h102v-103h100v-106h-100v-102h-102v-99h102v-102h100v-105h-1638zM309 616h99 v201h-99v-201zM412 514h200v98h-200v-98zM412 821h200v99h-200v-99zM616 309h713v99h-102v102h-99v-102h-311v102h-98v-102h-103v-99zM616 616h99v201h-99v-201zM719 821h405v406h-405v-406zM817 920v208h209v-208h-209zM821 514h99v98h-99v-98zM924 616h98v99h-98v-99z M1026 514h98v98h-98v-98z" />
<glyph unicode="&#xaa;" horiz-adv-x="1638" d="M0 715v106h100v103h103v102h102v102h103v103h102v102h102v101h107v-101h102v-102h103v-103h102v-102h102v-102h103v-103h100v-106h-100v-613h-721v408h-98v-408h-312v613h-100zM207 207h98v409h311v-409h508v508h-917v-508zM207 821h917v99h-102v102h-102v102h-103v103 h-102v102h-99v-102h-102v-103h-102v-102h-103v-102h-102v-99zM715 305v311h311v-311h-311zM821 412h99v98h-99v-98z" />
<glyph unicode="&#xab;" horiz-adv-x="1638" d="M0 614v103h1331v-103h-1331zM0 922v102h1331v-102h-1331zM410 307v103h204v102h103v-102h205v-103h-103v-102h-102v-103h-103v103h-102v102h-102zM410 1229v102h102v103h102v102h103v-102h102v-103h103v-102h-205v-103h-103v103h-204z" />
<glyph unicode="&#xac;" horiz-adv-x="1536" d="M0 100v1438h203v100h1028v-104h-103v-102h-102v-103h-102v-102h-103v-99h408v-106h-101v-102h-102v-103h-102v-102h-103v-103h-102v-512h-103v-100h-516v100h-100zM104 924h99v204h102v205h103v99h-304v-508zM309 309h99v99h-99v-99zM309 924h307v-107h-102v-205h-102 v-200h98v102h102v102h103v103h102v102h103v103h102v98h-410v106h103v103h102v102h103v103h102v98h-508v-205h-102v-205h-103v-200z" />
<glyph unicode="&#xad;" horiz-adv-x="1228" d="M0 205v1126h719v-100h102v-103h101v-923h-922zM104 309h713v611h-307v307h-406v-918zM616 1026h201v98h-102v103h-99v-201z" />
<glyph unicode="&#xae;" horiz-adv-x="1331" d="M0 612v209h100v103h209v-103h99v408h413v-412h-409v-205h-103v-102h-209v102h-100zM104 616h201v201h-201v-201zM305 307v105h103v102h102v102h102v103h107v-103h102v-102h103v-102h100v-105h-719zM514 412h303v98h-102v102h-99v-102h-102v-98zM514 924h201v200h-201 v-200z" />
<glyph unicode="&#xaf;" horiz-adv-x="2048" d="M0 408v1130h100v100h1540v-100h101v-1130h-101v-103h-102v-102h-102v-103h-103v-100h-106v305h-1127v103h-100zM207 719h303v98h-205v107h205v98h-205v106h205v99h-303v-508zM514 821h98v99h-98v-99zM514 1026h98v98h-98v-98zM719 719h303v98h-205v410h-98v-508z M1128 719h99v205h209v-205h98v405h-98v-102h-209v102h-99v-405zM1231 1128h201v99h-201v-99z" />
<glyph unicode="&#xb0;" d="M0 715v106h101v103h105v102h103v-102h103v-103h102v-106h-205v-99h103v-204h204v-103h304v103h208v-107h-204v-100h-312v100h-204v103h-103v204h-102v103h-203zM408 1227v106h204v101h312v-101h204v-102h103v-205h101v-102h204v-107h-101v-102h-102v-103h-109v103h-100 v102h-102v107h205v98h-103v205h-204v102h-304v-102h-208z" />
<glyph unicode="&#xb1;" d="M0 205v1229h1536v-1229h-1536zM104 412h304v98h-103v102h-102v107h106v-103h201v103h205v303h-103v102h-102v103h-102v102h-304v-917zM305 1022v106h107v-106h-107zM924 616h102v-102h102v-106h-102v-99h303v99h-102v106h102v102h103v304h-103v102h-102v102h-99v-102 h-102v-102h-102v-99h307v-106h-307v-99zM924 1231h102v-103h98v201h-200v-98zM1231 1128h98v103h103v98h-201v-201z" />
<glyph unicode="&#xb2;" d="M0 205v1126h1536v-1126h-1536zM104 309h304v99h-103v102h-102v106h106v-102h201v205h205v201h-103v102h-102v102h-102v103h-304v-918zM305 920v106h107v-106h-107zM821 719h205v-205h201v102h106v-106h-102v-102h-103v-99h304v918h-304v-103h-102v-102h-102v-102h-103 v-201zM1124 920v106h107v-106h-107z" />
<glyph unicode="&#xb3;" horiz-adv-x="1638" d="M0 408v1130h100v100h1131v-100h100v-1130h-100v-103h-103v-102h-102v-103h-102v-100h-107v305h-717v103h-100zM104 412h820v-205h98v102h102v103h103v1122h-1123v-1122zM408 1022v209h102v102h414v-102h102v-311h-205v-205h-209v209h103v102h102v201h-201v-205h-208z M612 510v106h209v-106h-209z" />
<glyph unicode="&#xb4;" horiz-adv-x="1536" d="M0 205v309h100v205h103v205h102v204h103v205h102v101h209v-101h102v-205h103v-204h102v-205h102v-205h101v-309h-1229zM104 309h1020v201h-102v205h-102v205h-103v204h-102v205h-201v-205h-102v-204h-103v-205h-102v-205h-103v-201zM510 408v106h209v-106h-209zM510 612 v414h209v-414h-209z" />
<glyph unicode="&#xb5;" horiz-adv-x="1740" d="M0 920v311h100v102h312v-102h102v-311h-102v-99h614v-102h303v102h105v-516h-105v103h-201v-205h-102v-101h-823v101h-103v413h103v103h205v98h-308v103h-100zM104 924h304v303h-304v-303zM203 1022v106h106v-106h-106zM207 207h815v307h307v98h-307v103h-610v-103h-205 v-405zM305 305v107h107v-107h-107zM510 305v107h414v-107h-414zM612 510v106h107v-106h-107zM612 1022v311h103v101h311v-101h102v-311h-102v-102h-311v102h-103zM719 1026h303v303h-303v-303zM817 510v106h107v-106h-107zM817 1124v107h107v-107h-107z" />
<glyph unicode="&#xb6;" horiz-adv-x="1945" d="M0 410v512h205v204h102v205h307v205h410v-205h307v-205h103v-204h204v-512h-102v-308h-205v308h-1024v-308h-205v308h-102zM102 614h205v205h-205v-205zM307 922h1024v102h-102v205h-819v-205h-103v-102zM1331 614h205v205h-205v-205z" />
<glyph unicode="&#xb7;" horiz-adv-x="1638" d="M0 102v512h307v-102h-205v-307h308v205h102v-308h-512zM0 922v512h512v-308h-102v205h-308v-307h205v-102h-307zM102 717v102h103v-102h-103zM205 307v103h102v-103h-102zM205 1126v103h102v-103h-102zM307 717v102h205v-102h-205zM410 512v102h102v-102h-102zM410 922 v102h102v-102h-102zM614 205v102h103v-102h-103zM614 410v204h103v-204h-103zM614 717v102h103v-102h-103zM614 922v204h103v-204h-103zM614 1229v102h103v-102h-103zM819 102v308h103v-205h307v307h-205v102h307v-512h-512zM819 512v102h103v-102h-103zM819 717v102h205 v-102h-205zM819 922v102h103v-102h-103zM819 1126v308h512v-512h-307v102h205v307h-307v-205h-103zM1024 307v103h102v-103h-102zM1024 1126v103h102v-103h-102zM1126 717v102h103v-102h-103z" />
<glyph unicode="&#xb8;" horiz-adv-x="1433" d="M0 205v104h1126v-104h-1126zM0 408v106h100v303h-100v107h100v102h103v102h102v103h103v102h102v101h106v-101h103v-102h102v-103h103v-102h102v-102h100v-107h-100v-303h100v-106h-1126zM207 514h98v303h-98v-303zM207 924h713v98h-103v102h-102v103h-103v102h-98v-102 h-102v-103h-103v-102h-102v-98zM412 514h98v303h-98v-303zM616 514h99v303h-99v-303zM821 514h99v303h-99v-303z" />
<glyph unicode="&#xb9;" d="M0 817v311h305v101h823v-101h304v101h104v-617h-104v103h-201v-205h-103v-100h-823v100h-102v307h-203zM104 924h205v-410h815v307h308v201h-308v102h-815v-102h-205v-98zM408 612v107h106v-107h-106zM612 612v107h414v-107h-414zM715 817v107h106v-107h-106zM920 817 v107h106v-107h-106z" />
<glyph unicode="&#xba;" horiz-adv-x="1638" d="M0 717v102h102v103h103v102h102v102h103v103h102v102h102v103h103v-103h102v-102h103v-103h102v-102h102v-102h103v-103h102v-102h-102v-615h-717v410h-102v-410h-308v615h-102zM205 205h102v409h307v-409h512v512h-921v-512zM717 307v307h307v-307h-307zM819 410h103 v102h-103v-102z" />
<glyph unicode="&#xbb;" horiz-adv-x="1228" d="M0 922v307h307v102h307v-102h308v-307h-103v-615h-717v615h-102zM102 1024h717v102h-717v-102zM205 410h102v512h-102v-512zM410 410h102v512h-102v-512zM614 410h103v512h-103v-512z" />
<glyph unicode="&#xbc;" horiz-adv-x="1638" d="M0 1124v209h100v101h107v-101h201v101h208v-101h201v101h209v-101h102v-205h102v-204h101v-209h-104v102h-201v-102h-207v102h-203v-303h103v-209h-103v-100h-106v100h-102v205h-103v205h-102v205h-103v204h-100zM104 1128h99v201h-99v-201zM207 924h98v200h-98v-200z M309 719h99v201h-99v-201zM309 1128h103v-204h102v-103h98v103h103v98h-104v205h-99v102h-100v-102h-103v-99zM412 514h98v201h-98v-201zM514 309h98v201h-98v-201zM719 1128h102v-206h103v-101h98v103h102v98h-102v205h-102v102h-99v-102h-102v-99z" />
<glyph unicode="&#xbd;" horiz-adv-x="1228" d="M0 307v1024h922v-1024h-922zM104 412h304v98h-103v102h-102v103h-99v-303zM104 924h512v-512h201v815h-713v-303zM207 719h98v98h-98v-98zM309 616h99v99h-99v-99zM412 514h98v98h-98v-98zM412 719h98v98h-98v-98z" />
<glyph unicode="&#xbe;" horiz-adv-x="1433" d="M0 205v1229h309v-510h99v102h102v102h102v103h107v-307h98v102h103v102h102v103h104v-1026h-718v305h-99v-305h-309zM104 309h99v307h311v-307h508v713h-98v-102h-103v-103h-102v-102h-107v307h-98v-102h-102v-103h-103v-102h-106v614h-99v-1020zM408 1329v105h106v-105 h-106zM612 510v106h107v-106h-107zM612 1329v105h107v-105h-107zM817 510v106h107v-106h-107zM817 1329v105h107v-105h-107zM1022 1329v105h104v-105h-104z" />
<glyph unicode="&#xbf;" d="M0 102v1434h1536v-1434h-1536zM104 207h1328v917h-1328v-917zM104 1231h99v98h-99v-98zM203 408v106h102v102h107v-102h102v-106h-102v-103h-107v103h-102zM203 817v107h102v102h107v-102h102v-107h-102v-102h-107v102h-102zM207 1333h98v99h-98v-99zM309 1231h99v98h-99 v-98zM412 1333h98v99h-98v-99zM514 1231h98v98h-98v-98zM612 408v106h721v-106h-721zM612 817v107h721v-107h-721zM616 1333h99v99h-99v-99zM719 1231h98v98h-98v-98zM821 1333h99v99h-99v-99zM924 1231h98v98h-98v-98zM1026 1333h98v99h-98v-99zM1128 1231h99v98h-99v-98z M1231 1333h98v99h-98v-99zM1333 1231h99v98h-99v-98z" />
<glyph unicode="&#xc0;" horiz-adv-x="1945" d="M0 102v924h100v102h103v103h307v102h102v101h312v-101h102v-102h512v-103h100v-720h-100v-103h-102v-102h-103v-101h-1333zM104 207h1123v405h-1123v-405zM104 719h201v102h107v-102h508v102h106v-102h201v307h102v98h-303v-102h-106v102h-304v-102h-106v102h-303v-102 h-103v-303zM616 1231h304v98h-304v-98zM1333 309h99v103h102v405h-98v-102h-103v-406zM1333 821h99v103h102v200h-98v-102h-103v-201z" />
<glyph unicode="&#xc1;" horiz-adv-x="1433" d="M0 205v102h102v-102h-102zM0 410v102h102v-102h-102zM0 614v103h102v-103h-102zM0 819v103h102v-103h-102zM0 1024v102h102v-102h-102zM0 1229v102h102v-102h-102zM205 205v102h102v-102h-102zM205 410v102h102v-102h-102zM205 614v103h102v-103h-102zM205 819v103h102 v-103h-102zM205 1024v102h102v-102h-102zM205 1229v102h102v-102h-102zM410 205v102h102v-102h-102zM410 410v102h102v-102h-102zM410 614v103h102v-103h-102zM410 819v103h102v-103h-102zM410 1024v102h102v-102h-102zM410 1229v102h102v-102h-102zM614 205v102h103v-102 h-103zM614 410v102h103v-102h-103zM614 614v103h103v-103h-103zM614 819v103h103v-103h-103zM614 1024v102h103v-102h-103zM614 1229v102h103v-102h-103zM819 205v102h103v-102h-103zM819 410v102h103v-102h-103zM819 614v103h103v-103h-103zM819 819v103h103v-103h-103z M819 1024v102h103v-102h-103zM819 1229v102h103v-102h-103zM1024 205v102h102v-102h-102zM1024 410v102h102v-102h-102zM1024 614v103h102v-103h-102zM1024 819v103h102v-103h-102zM1024 1024v102h102v-102h-102zM1024 1229v102h102v-102h-102z" />
<glyph unicode="&#xc2;" horiz-adv-x="1433" d="M0 205v102h1126v-102h-1126zM0 410v102h1126v-102h-1126zM0 614v103h1126v-103h-1126zM0 819v103h1126v-103h-1126zM0 1024v102h1126v-102h-1126zM0 1229v102h1126v-102h-1126z" />
<glyph unicode="&#xc3;" horiz-adv-x="1740" d="M0 102v105h100v205h103v1022h106v-101h99v101h208v-408h615v-102h102v-103h101v-106h-101v-103h-102v-102h-615v-98h103v-205h102v-105h-311v105h102v98h-102v205h-201v-98h103v-107h-205v-98h102v-105h-309zM309 1128h99v99h-99v-99zM412 1026h98v98h-98v-98zM412 1231 h98v98h-98v-98zM616 616h611v103h102v98h-102v103h-611v-304zM920 715v106h208v-106h-208z" />
<glyph unicode="&#xc4;" horiz-adv-x="1740" d="M0 205v1126h1434v-1126h-1434zM104 412h99v102h102v102h103v103h102v98h-102v103h-103v102h-102v102h-99v-712zM207 309h1020v99h-103v102h-102v102h-102v103h-99v-103h-209v103h-98v-103h-102v-102h-103v-102h-102v-99zM207 1128h102v-102h103v-102h102v-103h102v-102 h201v102h103v103h102v102h102v102h103v99h-1020v-99zM924 719h102v-103h102v-102h103v-102h98v712h-98v-102h-103v-102h-102v-103h-102v-98z" />
<glyph unicode="&#xc5;" horiz-adv-x="1433" d="M0 205v102h102v103h-102v102h102v102h-102v103h102v102h-102v103h102v102h-102v102h102v103h-102v102h102v103h103v-103h102v103h103v-103h102v103h102v-103h103v103h102v-103h103v103h102v-103h102v-102h-102v-103h102v-102h-102v-102h102v-103h-102v-102h102v-103h-102 v-102h102v-102h-102v-103h102v-102h-102v-103h-102v103h-103v-103h-102v103h-103v-103h-102v103h-102v-103h-103v103h-102v-103h-103v103h-102zM205 307h717v922h-717v-922zM307 410v102h512v-102h-512zM307 614v103h512v-103h-512zM307 819v103h512v-103h-512zM307 1024 v102h512v-102h-512z" />
<glyph unicode="&#xc6;" horiz-adv-x="2560" d="M0 920v106h203v205h102v100h311v-309h-102v-102h-205v-99h303v103h103v102h102v102h103v103h1333v-924h-1333v101h-103v102h-102v102h-103v103h-307v102h-102v103h-203zM309 1026h201v201h-201v-201zM719 719h98v98h-98v-98zM1333 514h205v-102h98v200h-303v-98z M1333 821h99v99h-99v-99zM1436 719h200v98h-200v-98zM1436 924h303v98h-103v102h-98v-102h-102v-98zM1640 616h99v99h-99v-99z" />
<glyph unicode="&#xc7;" horiz-adv-x="1228" d="M0 205v1126h717v-102h102v-103h103v-921h-922zM102 307h717v717h-205v205h-512v-922zM205 410v102h512v-102h-512zM205 614v103h512v-103h-512zM205 819v103h512v-103h-512zM205 1024v102h307v-102h-307z" />
<glyph unicode="&#xc8;" horiz-adv-x="1740" d="M0 305v1028h100v101h1233v-101h101v-1028h-101v-100h-1233v100h-100zM104 412h99v98h-99v-98zM104 616h99v99h-99v-99zM104 821h99v99h-99v-99zM104 1128h1225v201h-1225v-201zM207 309h98v99h-98v-99zM207 514h98v98h-98v-98zM207 719h98v98h-98v-98zM207 924h98v98h-98 v-98zM309 412h99v98h-99v-98zM309 616h99v99h-99v-99zM309 821h99v99h-99v-99zM412 309h98v99h-98v-99zM412 514h98v98h-98v-98zM412 719h98v98h-98v-98zM412 924h98v98h-98v-98zM514 412h98v98h-98v-98zM514 616h98v99h-98v-99zM514 821h98v99h-98v-99zM616 309h99v99h-99 v-99zM616 514h99v98h-99v-98zM616 719h99v98h-99v-98zM616 924h99v98h-99v-98zM719 412h98v98h-98v-98zM719 616h98v99h-98v-99zM719 821h98v99h-98v-99zM821 309h99v99h-99v-99zM821 514h99v98h-99v-98zM821 719h99v98h-99v-98zM821 924h99v98h-99v-98zM924 412h98v98h-98 v-98zM924 616h98v99h-98v-99zM924 821h98v99h-98v-99zM1026 309h98v99h-98v-99zM1026 514h98v98h-98v-98zM1026 719h98v98h-98v-98zM1026 924h98v98h-98v-98zM1128 412h99v98h-99v-98zM1128 616h99v99h-99v-99zM1128 821h99v99h-99v-99zM1231 309h98v99h-98v-99zM1231 514 h98v98h-98v-98zM1231 719h98v98h-98v-98zM1231 924h98v98h-98v-98z" />
<glyph unicode="&#xc9;" horiz-adv-x="1433" d="M0 408v720h104v-102h99v305h721v-100h102v-103h100v-923h-923v305h-99v-102h-104zM207 514h102v-205h713v713h-205v205h-508v-205h-102v-98h102v-103h99v103h516v-107h-512v-98h512v-107h-516v103h-99v-103h-102v-98zM408 408v106h516v-106h-516zM408 1022v106h311v-106 h-311z" />
<glyph unicode="&#xca;" horiz-adv-x="1433" d="M0 205v1126h102v-1126h-102zM205 205v1126h102v-1126h-102zM410 205v1126h102v-1126h-102zM614 205v1126h103v-1126h-103zM819 205v1126h103v-1126h-103zM1024 205v1126h102v-1126h-102z" />
<glyph unicode="&#xcb;" horiz-adv-x="1331" d="M0 510v106h203v103h205v98h-205v103h-203v106h309v-102h205v-103h98v205h103v100h209v-100h100v-106h-100v-102h-205v-99h205v-103h100v-106h-100v-100h-209v100h-103v205h-98v-103h-205v-102h-309zM719 514h201v98h-201v-98zM719 924h201v98h-201v-98z" />
<glyph unicode="&#xcc;" horiz-adv-x="1536" d="M0 717v205h102v102h103v102h102v103h103v102h307v-102h-103v-103h-102v-102h-102v-102h819v-205h-819v-103h102v-102h102v-102h103v-103h-307v103h-103v102h-102v102h-103v103h-102z" />
<glyph unicode="&#xcd;" d="M0 1329v105h207v-101h102v-102h1227v-107h-100v-307h-103v-205h-921v-200h921v-103h103v-106h-103v-101h-209v101h-102v102h-406v-102h-102v-101h-209v101h-102v106h102v815h-102v103h-103v102h-100zM309 207h201v98h-201v-98zM412 719h98v98h-98v-98zM412 924h98v98h-98 v-98zM514 821h98v99h-98v-99zM514 1026h98v98h-98v-98zM616 719h99v98h-99v-98zM616 924h99v98h-99v-98zM719 821h98v99h-98v-99zM719 1026h98v98h-98v-98zM821 719h99v98h-99v-98zM821 924h99v98h-99v-98zM924 821h98v99h-98v-99zM924 1026h98v98h-98v-98zM1026 719h98v98 h-98v-98zM1026 924h98v98h-98v-98zM1128 207h201v98h-201v-98zM1128 821h99v99h-99v-99zM1128 1026h99v98h-99v-98zM1231 924h98v98h-98v-98z" />
<glyph unicode="&#xce;" horiz-adv-x="2048" d="M0 410v1126h102v-1126h-102zM102 307v103h1127v-103h102v-102h103v-103h-103v-102h-102v307h-1127zM102 1536v102h1536v-102h-1536zM205 717v512h307v-103h102v-102h-102v102h-205v-102h205v-102h102v-103h-102v-102h-307zM307 819h205v103h-205v-103zM717 717v512h102 v-410h205v-102h-307zM1126 717v409h103v-102h205v102h-205v103h205v-103h102v-409h-102v205h-205v-205h-103zM1434 205v102h102v-102h-102zM1536 307v103h102v-103h-102zM1638 410v1126h103v-1126h-103z" />
<glyph unicode="&#xcf;" horiz-adv-x="1536" d="M0 717v205h819v102h-102v102h-103v103h-102v102h307v-102h103v-103h102v-102h102v-102h103v-205h-103v-103h-102v-102h-102v-102h-103v-103h-307v103h102v102h103v102h102v103h-819z" />
<glyph unicode="&#xd0;" horiz-adv-x="1433" d="M0 715v106h104v-106h-104zM100 305v107h107v-107h-107zM100 510v106h107v-106h-107zM100 920v106h107v-106h-107zM100 1124v107h107v-107h-107zM203 715v106h106v-106h-106zM305 305v107h107v-107h-107zM305 510v106h107v-106h-107zM305 920v106h107v-106h-107zM305 1124 v107h107v-107h-107zM408 715v106h102v103h106v-103h103v-106h-103v-103h-106v103h-102zM510 205v104h106v-104h-106zM510 408v106h106v-106h-106zM510 1022v106h106v-106h-106zM510 1227v104h106v-104h-106zM514 719h98v98h-98v-98zM715 305v107h106v-107h-106zM715 510v106 h106v-106h-106zM715 920v106h106v-106h-106zM715 1124v107h106v-107h-106zM817 715v106h107v-106h-107zM920 305v107h106v-107h-106zM920 510v106h106v-106h-106zM920 920v106h106v-106h-106zM920 1124v107h106v-107h-106zM1022 715v106h104v-106h-104z" />
<glyph unicode="&#xd1;" horiz-adv-x="1228" d="M0 203v311h100v102h205v205h103v99h-103v204h-102v412h106v-305h103v-205h98v205h102v305h107v-412h-103v-204h-102v-99h102v-102h205v-103h101v-311h-101v-102h-209v102h-102v410h-98v-512h-103v-101h-209v101h-100zM104 207h201v303h-201v-303zM616 309h201v303h-201 v-303z" />
<glyph unicode="&#xd2;" horiz-adv-x="1433" d="M0 205v514h100v98h-100v514h514v-100h98v100h514v-514h-100v-98h100v-514h-514v100h-98v-100h-514zM104 309h99v99h-99v-99zM104 514h99v98h-99v-98zM104 924h99v98h-99v-98zM104 1128h99v99h-99v-99zM207 719h98v98h-98v-98zM309 309h99v99h-99v-99zM309 514h99v98h-99 v-98zM309 924h99v98h-99v-98zM309 1128h99v99h-99v-99zM412 719h98v98h-98v-98zM514 412h98v98h-98v-98zM514 616h98v99h-98v-99zM514 821h98v99h-98v-99zM514 1026h98v98h-98v-98zM616 719h99v98h-99v-98zM719 309h98v99h-98v-99zM719 514h98v98h-98v-98zM719 924h98v98 h-98v-98zM719 1128h98v99h-98v-99zM821 719h99v98h-99v-98zM924 309h98v99h-98v-99zM924 514h98v98h-98v-98zM924 924h98v98h-98v-98zM924 1128h98v99h-98v-99z" />
<glyph unicode="&#xd3;" horiz-adv-x="1331" d="M0 717v307h102v102h103v103h102v102h103v103h204v-103h103v-102h102v-103h103v-102h102v-307h-102v102h-103v103h-102v102h-103v-819h-204v819h-103v-102h-102v-103h-103v-102h-102z" />
<glyph unicode="&#xd4;" horiz-adv-x="1331" d="M0 614v308h102v-103h103v-102h102v-103h103v820h204v-820h103v103h102v102h103v103h102v-308h-102v-102h-103v-102h-102v-103h-103v-102h-204v102h-103v103h-102v102h-103v102h-102z" />
<glyph unicode="&#xd5;" horiz-adv-x="1638" d="M0 408v208h104v-204h103v-205h205v-103h508v103h204v205h103v508h-103v204h-204v103h-201v-205h-107v102h-102v103h-102v106h102v103h102v100h107v-203h205v-102h204v-103h103v-204h100v-516h-100v-205h-103v-103h-204v-100h-516v100h-205v103h-103v205h-100z" />
<glyph unicode="&#xd6;" horiz-adv-x="1433" d="M0 1227v106h100v103h410v100h106v-100h410v-103h100v-106h-100v-922h-102v-100h-721v100h-103v922h-100zM104 1231h918v98h-918v-98zM207 309h713v815h-713v-815zM305 408v618h107v-618h-107zM510 408v618h106v-618h-106zM715 408v618h106v-618h-106z" />
<glyph unicode="&#xd7;" horiz-adv-x="1536" d="M0 305v107h104v-107h-104zM100 510v106h107v-106h-107zM203 305v107h106v-107h-106zM203 715v106h106v-106h-106zM203 1022v311h102v101h311v-101h103v-307h98v102h311v-102h101v-311h-101v-103h-311v103h-102v307h-99v-102h-311v102h-102zM305 510v106h107v-106h-107z M309 1026h303v303h-303v-303zM408 715v106h106v-106h-106zM408 1124v107h106v-107h-106zM817 205v104h107v-104h-107zM817 408v106h107v-106h-107zM821 719h303v303h-303v-303zM920 817v107h106v-107h-106zM1022 205v104h106v-104h-106zM1022 408v106h106v-106h-106z" />
<glyph unicode="&#xd8;" horiz-adv-x="1638" d="M0 817v209h100v102h103v103h205v100h618v-100h205v-103h100v-311h-100v-102h-103v-201h103v-102h100v-105h-411v101h-103v102h-409v102h-205v103h-103v102h-100zM104 821h103v-102h205v-103h409v-102h103v-102h200v98h-102v209h102v102h103v303h-205v103h-610v-103h-205 v-102h-103v-201z" />
<glyph unicode="&#xd9;" horiz-adv-x="1638" d="M0 612v516h100v205h103v103h205v100h516v-100h204v-103h103v-205h100v-516h-100v-204h-103v-103h-204v-100h-516v100h-205v103h-103v204h-100zM104 616h103v-204h205v-103h508v103h204v204h103v508h-103v205h-204v103h-508v-103h-205v-205h-103v-508zM203 817v107h106 v-107h-106zM612 408v106h107v-106h-107zM612 817v516h107v-512h102v-102h103v-107h-107v103h-102v102h-103zM1022 817v107h106v-107h-106z" />
<glyph unicode="&#xda;" horiz-adv-x="1945" d="M0 203v1435h924v-305h512v-516h-103v-98h103v-103h102v-102h100v-106h-100v-201h100v-207h-206v203h-103v102h-98v-102h-107v721h107v-103h98v406h-1225v-918h922v-106h-1026zM104 1333h99v99h-99v-99zM203 408v106h823v-106h-823zM203 715v106h823v-106h-823zM203 1022 v106h1028v-106h-1028zM207 1436h98v98h-98v-98zM309 1333h99v99h-99v-99zM412 1436h98v98h-98v-98zM514 1333h98v99h-98v-99zM616 1436h99v98h-99v-98zM719 1333h98v99h-98v-99z" />
<glyph unicode="&#xdb;" horiz-adv-x="1433" d="M0 1022v104h1126v-104h-100v-102h-102v-103h-103v-102h-102v-103h-103v-100h-106v100h-102v103h-103v102h-102v103h-103v102h-100zM207 924h102v-103h103v-102h102v-103h98v103h103v102h102v103h103v98h-713v-98z" />
<glyph unicode="&#xdc;" horiz-adv-x="1126" d="M0 410v1126h102v-102h103v-103h102v-102h103v-103h102v-102h102v-102h103v-103h102v-102h-307v-205h102v-205h103v-205h-205v205h-102v205h-103v102h-102v-102h-103v-102h-102z" />
<glyph unicode="&#xdd;" horiz-adv-x="1024" d="M0 410v716h717v-716h-717zM102 512h512v512h-512v-512zM205 614v308h307v-308h-307zM307 717h103v102h-103v-102z" />
<glyph unicode="&#xde;" horiz-adv-x="1536" d="M0 1024v102h205v-102h-205zM0 1229v102h205v-102h-205zM307 205v1126h922v-1126h-922zM410 307h716v922h-716v-922zM512 410v102h205v-102h-205zM512 614v103h307v-103h-307zM512 819v103h102v-103h-102zM512 1024v102h512v-102h-512zM717 819v103h307v-103h-307z M819 410v102h205v-102h-205zM922 614v103h102v-103h-102z" />
<glyph unicode="&#xdf;" horiz-adv-x="1638" d="M0 102v1332h102v-103h103v103h102v-103h717v103h102v-103h103v103h102v-1332h-102v103h-103v-103h-102v103h-717v-103h-102v103h-103v-103h-102zM102 307h103v103h-103v-103zM102 512h103v102h-103v-102zM102 717h103v102h-103v-102zM102 922h103v102h-103v-102z M102 1126h103v103h-103v-103zM307 307h717v410h-717v-410zM307 819h717v410h-717v-410zM1126 307h103v103h-103v-103zM1126 512h103v102h-103v-102zM1126 717h103v102h-103v-102zM1126 922h103v102h-103v-102zM1126 1126h103v103h-103v-103z" />
<glyph unicode="&#xe0;" d="M0 102v1129h100v102h103v101h413v-101h103v-102h717v-103h100v-1026h-1536zM104 207h1328v917h-717v103h-103v102h-405v-102h-103v-1020z" />
<glyph unicode="&#xe1;" d="M0 510v516h100v205h103v102h102v103h205v100h516v-100h205v-103h102v-102h103v-205h100v-516h-100v-205h-103v-102h-102v-103h-205v-100h-516v100h-205v103h-102v102h-103v205h-100zM104 821h611v611h-201v-103h-205v-102h-102v-205h-103v-201zM821 104h201v103h205v102 h102v205h103v201h-611v-611z" />
<glyph unicode="&#xe2;" d="M0 102v1129h100v102h103v101h413v-101h103v-102h717v-103h100v-1026h-1536zM104 207h1328v917h-717v103h-103v102h-405v-102h-103v-1020zM408 408v106h106v-106h-106zM408 612v107h106v-107h-106zM408 817v107h106v-107h-106zM612 408v106h619v-106h-619zM612 612v107 h619v-107h-619zM612 817v107h619v-107h-619z" />
<glyph unicode="&#xe3;" horiz-adv-x="1638" d="M0 205v1229h1331v-1229h-1331zM102 307h410v205h-307v205h102v-103h205v205h-102v103h204v409h-512v-1024zM205 1024v102h102v-102h-102zM410 1024v102h102v-102h-102zM819 410h307v307h-307v-307zM819 1024h103v102h-103v-102zM922 512v102h102v-102h-102zM922 819h102 v103h-102v-103zM1024 1024h102v102h-102v-102z" />
<glyph unicode="&#xe4;" horiz-adv-x="1638" d="M0 205v1229h1331v-1229h-1331zM102 307h410v205h-307v205h102v-103h205v205h-102v103h204v409h-512v-1024zM205 1024v102h102v-102h-102zM410 1024v102h102v-102h-102zM614 307h615v1024h-512v-512h-103v-512zM717 512v102h307v103h102v-205h-409zM819 1024v102h103v-102 h-103zM922 819v103h102v-103h-102zM1024 1024v102h102v-102h-102z" />
<glyph unicode="&#xe5;" horiz-adv-x="1638" d="M0 205v1229h1331v-1229h-1331zM102 307h512v1024h-512v-1024zM205 410v102h307v-102h-307zM205 1024v102h102v-102h-102zM307 717v102h103v-102h-103zM410 1024v102h102v-102h-102zM819 410h307v102h-307v-102zM819 1024h103v102h-103v-102zM922 717h102v102h-102v-102z M1024 1024h102v102h-102v-102z" />
<glyph unicode="&#xe6;" horiz-adv-x="1433" d="M0 205v1126h1126v-1126h-1126zM205 410h717v716h-717v-716zM410 614v308h307v-308h-307z" />
<glyph unicode="&#xe7;" horiz-adv-x="1638" d="M0 205v1229h1331v-1229h-1331zM104 309h508v201h-303v-102h-106v106h102v102h307v713h-508v-1020zM203 1022v106h106v-106h-106zM305 817v107h107v-107h-107zM408 1022v106h106v-106h-106zM719 309h508v1020h-508v-713h303v103h106v-107h-102v-102h-307v-201zM817 1022 v106h107v-106h-107zM920 817v107h106v-107h-106zM1022 1022v106h106v-106h-106z" />
<glyph unicode="&#xe8;" d="M0 102v1129h100v102h103v101h413v-101h103v-102h717v-103h100v-1026h-1536zM104 207h1328v917h-717v103h-103v102h-405v-102h-103v-1020zM203 408v106h102v102h107v-102h102v-106h-102v-103h-107v103h-102zM203 817v107h102v102h107v-102h102v-107h-102v-102h-107v102 h-102zM309 412h99v98h-99v-98zM309 821h99v99h-99v-99zM612 408v106h107v-106h-107zM612 817v107h721v-107h-721zM817 408v106h107v-106h-107zM1022 408v106h106v-106h-106zM1227 408v106h106v-106h-106z" />
<glyph unicode="&#xe9;" d="M0 102v1129h100v102h103v101h413v-101h103v-102h717v-103h100v-1026h-1536zM104 207h1328v917h-717v103h-103v102h-405v-102h-103v-1020zM408 612v107h204v98h-102v107h106v-103h99v205h106v-205h99v103h106v-107h-102v-98h204v-107h-204v-98h102v-106h-106v102h-99v-205 h-106v205h-99v-102h-106v106h102v98h-204zM719 616h98v99h-98v-99z" />
<glyph unicode="&#xea;" horiz-adv-x="1638" d="M0 0v104h100v103h103v205h102v204h103v103h102v102h100v205h105v205h102v205h103v202h106v-206h-102v-205h-103v-205h-102v-201h201v205h102v205h102v205h103v202h104v-206h-100v-205h-103v-205h-102v-205h-102v-409h-103v-103h-102v-102h-103v-103h-204v-100h-412z M207 104h98v99h-98v-99zM309 207h99v102h102v103h102v102h103v201h-201v-103h-102v-204h-103v-201z" />
<glyph unicode="&#xeb;" d="M0 100v516h100v103h103v104h409v199h-102v102h-102v312h102v102h102v100h312v-100h102v-102h102v-312h-102v-102h-102v-201h409v-102h103v-103h100v-516h-100v-100h-1336v100h-100zM104 104h1328v304h-1328v-304zM104 516h1328v96h-103v103h-405v-103h-312v103h-405v-103 h-103v-96zM408 203v106h106v-106h-106zM514 1128h102v-102h304v102h102v304h-98v-103h-312v103h-98v-304zM612 203v106h107v-106h-107zM616 1436h304v98h-304v-98zM719 719h98v201h-98v-201zM817 203v106h107v-106h-107zM1022 203v106h106v-106h-106z" />
<glyph unicode="&#xec;" horiz-adv-x="1024" d="M0 205v1229h717v-1229h-717zM102 307h512v1024h-512v-1024zM205 512v102h205v103h102v-205h-307zM205 1024v102h102v-102h-102zM307 819v103h103v-103h-103zM410 1024v102h102v-102h-102z" />
<glyph unicode="&#xed;" horiz-adv-x="1024" d="M0 205v1229h717v-1229h-717zM205 410h307v307h-307v-307zM205 1024h102v102h-102v-102zM307 512v102h103v-102h-103zM307 819h103v103h-103v-103zM410 1024h102v102h-102v-102z" />
<glyph unicode="&#xee;" horiz-adv-x="1024" d="M0 205v1229h717v-615h-103v-614h-614zM102 307h410v307h-205v-102h-102v204h307v103h-102v103h204v409h-512v-1024zM205 1024v102h102v-102h-102zM410 1024v102h102v-102h-102z" />
<glyph unicode="&#xef;" horiz-adv-x="1024" d="M0 205v1229h717v-1229h-717zM102 307h512v1024h-512v-1024zM205 410v307h307v-307h-307zM205 1024v102h102v-102h-102zM307 512h103v102h-103v-102zM307 819v103h103v-103h-103zM410 1024v102h102v-102h-102z" />
<glyph unicode="&#xf1;" horiz-adv-x="1740" d="M0 307v1127h102v102h1229v-102h103v-1127h-103v-205h-205v205h-307v-102h-512v-103h-205v205h-102zM102 512h205v205h-205v-205zM102 819h1229v410h-1229v-410zM307 1331h819v103h-819v-103zM1126 512h205v205h-205v-205z" />
<glyph unicode="&#xf2;" horiz-adv-x="1433" d="M0 205v1126h1126v-1126h-1126zM104 309h918v918h-918v-918zM203 715v106h102v103h103v102h102v102h106v-102h103v-102h102v-103h103v-106h-107v102h-102v103h-99v-512h-106v512h-98v-103h-103v-102h-106z" />
<glyph unicode="&#xf3;" horiz-adv-x="1433" d="M0 205v1126h1126v-1126h-1126zM104 309h918v918h-918v-918zM203 715v106h106v-102h103v-103h98v512h106v-512h99v103h102v102h107v-106h-103v-103h-102v-102h-103v-102h-106v102h-102v102h-103v103h-102z" />
<glyph unicode="&#xf4;" horiz-adv-x="1433" d="M0 205v1126h1126v-1126h-1126zM104 309h918v918h-918v-918zM203 715v106h102v103h103v102h102v102h106v-106h-102v-102h-102v-99h512v-106h-512v-99h102v-102h102v-106h-106v102h-102v102h-103v103h-102z" />
<glyph unicode="&#xf5;" horiz-adv-x="1433" d="M0 205v1126h1126v-1126h-1126zM104 309h918v918h-918v-918zM203 408v106h721v-106h-721zM305 817v107h107v-103h98v307h106v-307h99v103h106v-107h-102v-102h-103v-103h-106v103h-102v102h-103z" />
<glyph unicode="&#xf6;" horiz-adv-x="1433" d="M0 205v1126h1126v-1126h-1126zM104 309h918v918h-918v-918zM203 715v106h512v99h-103v102h-102v106h106v-102h103v-102h102v-103h103v-106h-103v-103h-102v-102h-103v-102h-106v106h102v102h103v99h-512z" />
<glyph unicode="&#xf7;" horiz-adv-x="1433" d="M0 512v104h100v103h103v102h102v103h103v102h102v100h106v-100h103v-102h102v-103h103v-102h102v-103h100v-104h-1126zM207 616h713v99h-103v102h-102v103h-103v102h-98v-102h-102v-103h-103v-102h-102v-99z" />
<glyph unicode="&#xf8;" horiz-adv-x="1433" d="M0 205v923h202v308h103v100h516v-100h103v-308h202v-923h-1126zM104 309h918v713h-918v-98h512v-107h-512v-98h512v-107h-512v-98h512v-106h-512v-99zM309 1128h100v205h310v-205h99v304h-509v-304zM514 1128h98v99h-98v-99z" />
<glyph unicode="&#xf9;" horiz-adv-x="1433" d="M0 205v1126h1126v-1126h-1126zM104 309h918v918h-918v-918zM305 920v106h103v102h311v-102h102v-209h-102v-102h-103v-103h-106v107h102v102h103v201h-303v-102h-107zM510 408v106h106v-106h-106z" />
<glyph unicode="&#xfa;" horiz-adv-x="1433" d="M0 205v1126h1126v-1126h-1126zM102 307h922v922h-922v-922zM307 410v102h205v307h-205v103h307v-410h205v-102h-512zM512 1024v102h102v-102h-102z" />
<glyph unicode="&#xfb;" horiz-adv-x="1638" d="M0 0v614h102v-512h308v512h102v-614h-512zM205 717v102h102v-102h-102zM205 922v102h102v-102h-102zM205 1126v103h1126v-512h-102v409h-103v-1126h-102v717h-102v-717h-103v1126h-614zM819 1331v307h307v-307h-307z" />
<glyph unicode="&#xfc;" horiz-adv-x="1638" d="M0 305v414h100v102h103v103h106v-107h-102v-102h-103v-406h103v-102h102v-103h406v103h102v102h107v-106h-103v-103h-102v-100h-414v100h-102v103h-103v102h-100zM408 510v721h208v-206h512v-105h-512v-201h512v-512h203v-107h-309v410h-614zM408 1329v309h311v-309h-311 z" />
<glyph unicode="&#xff;" horiz-adv-x="1638" d="M0 102v1332h1331v-1332h-1331zM103 205h1126v1126h-1126v-1126zM205 307v922h921v-922h-921zM307 410h717v716h-717v-716zM410 512v512h512v-512h-512zM513 614h306v308h-306v-308zM614 717v102h103v-102h-103z" />
<glyph unicode="&#x152;" horiz-adv-x="1638" d="M0 102v1332h1331v-1332h-1331zM102 205h1127v1126h-1127v-1126zM205 717v102h102v103h103v102h102v102h102v-307h103v103h102v102h103v102h102v-716h-102v102h-103v102h-102v103h-103v-307h-102v102h-102v102h-103v103h-102z" />
<glyph unicode="&#x153;" horiz-adv-x="1638" d="M0 102v1332h1331v-1332h-1331zM102 205h1127v1126h-1127v-1126zM512 410v716h102v-102h103v-102h102v-103h103v-102h-103v-103h-102v-102h-103v-102h-102z" />
<glyph unicode="&#x178;" horiz-adv-x="1433" d="M0 205v1126h1126v-1126h-1126zM103 307h921v922h-921v-922zM205 410v716h717v-716h-717zM308 512h511v512h-511v-512zM410 614v308h307v-308h-307zM512 717h100v102h-100v-102z" />
<glyph unicode="&#x2000;" horiz-adv-x="1126" />
<glyph unicode="&#x2001;" horiz-adv-x="2253" />
<glyph unicode="&#x2002;" horiz-adv-x="1126" />
<glyph unicode="&#x2003;" horiz-adv-x="2253" />
<glyph unicode="&#x2004;" horiz-adv-x="751" />
<glyph unicode="&#x2005;" horiz-adv-x="563" />
<glyph unicode="&#x2006;" horiz-adv-x="375" />
<glyph unicode="&#x2007;" horiz-adv-x="375" />
<glyph unicode="&#x2008;" horiz-adv-x="281" />
<glyph unicode="&#x2009;" horiz-adv-x="450" />
<glyph unicode="&#x200a;" horiz-adv-x="125" />
<glyph unicode="&#x2010;" horiz-adv-x="1228" d="M0 205v1126h719v-100h102v-103h101v-923h-922zM104 309h713v611h-307v307h-406v-918zM616 1026h201v98h-102v103h-99v-201z" />
<glyph unicode="&#x2011;" horiz-adv-x="1228" d="M0 205v1126h719v-100h102v-103h101v-923h-922zM104 309h713v611h-307v307h-406v-918zM616 1026h201v98h-102v103h-99v-201z" />
<glyph unicode="&#x2012;" horiz-adv-x="1228" d="M0 205v1126h719v-100h102v-103h101v-923h-922zM104 309h713v611h-307v307h-406v-918zM616 1026h201v98h-102v103h-99v-201z" />
<glyph unicode="&#x2013;" horiz-adv-x="1638" d="M0 102v1332h1331v-1332h-1331zM102 205h1127v1126h-1127v-1126zM307 410v716h103v-102h102v-102h102v-103h103v307h102v-102h103v-102h102v-103h102v-102h-102v-103h-102v-102h-103v-102h-102v307h-103v-103h-102v-102h-102v-102h-103z" />
<glyph unicode="&#x2014;" horiz-adv-x="1638" d="M0 102v1332h1331v-1332h-1331zM102 205h1127v1126h-1127v-1126zM307 410v716h307v-716h-307zM717 410v716h307v-716h-307z" />
<glyph unicode="&#x201a;" horiz-adv-x="1638" d="M0 102v514h203v99h-103v106h103v99h-203v514h514v-203h98v102h107v-102h98v203h514v-514h-203v-99h103v-106h-103v-99h203v-514h-514v203h-98v-102h-107v102h-98v-203h-514zM104 207h304v98h-103v103h-102v102h-99v-303zM104 1026h99v102h102v103h103v98h-304v-303z M207 514h98v98h-98v-98zM207 924h98v98h-98v-98zM309 719h201v98h-201v-98zM412 309h98v99h-98v-99zM412 514h98v98h-98v-98zM412 924h98v98h-98v-98zM412 1128h98v99h-98v-99zM616 412h99v200h-99v-200zM616 719h99v98h-99v-98zM616 924h99v200h-99v-200zM821 309h99v99 h-99v-99zM821 514h99v98h-99v-98zM821 719h201v98h-201v-98zM821 924h99v98h-99v-98zM821 1128h99v99h-99v-99zM924 207h303v303h-99v-102h-102v-103h-102v-98zM924 1231h102v-103h102v-102h99v303h-303v-98zM1026 514h98v98h-98v-98zM1026 924h98v98h-98v-98z" />
<glyph unicode="&#x201c;" horiz-adv-x="1638" d="M0 102v1332h1331v-1332h-1331zM102 205h1127v1126h-1127v-1126zM307 410v716h717v-716h-717z" />
<glyph unicode="&#x201d;" horiz-adv-x="1638" d="M0 102v1332h1331v-1332h-1331zM102 205h1127v1126h-1127v-1126zM307 614v308h103v102h102v102h307v-102h103v-102h102v-308h-102v-102h-103v-102h-307v102h-102v102h-103z" />
<glyph unicode="&#x201e;" horiz-adv-x="1638" d="M0 305v311h203v304h-203v311h100v102h103v101h311v-203h303v203h311v-101h103v-102h100v-311h-203v-304h203v-311h-100v-102h-103v-101h-311v203h-303v-203h-311v101h-103v102h-100zM0 715v106h104v-106h-104zM104 309h103v-102h201v98h-103v103h-102v102h-99v-201z M104 1026h99v102h102v103h103v98h-201v-102h-103v-201zM207 514h98v98h-98v-98zM207 924h98v98h-98v-98zM309 719h201v98h-201v-98zM412 309h98v99h-98v-99zM412 514h98v98h-98v-98zM412 924h98v98h-98v-98zM412 1128h98v99h-98v-99zM612 102v105h107v-105h-107zM612 1329 v105h107v-105h-107zM616 412h99v200h-99v-200zM616 719h99v98h-99v-98zM616 924h99v200h-99v-200zM821 309h99v99h-99v-99zM821 514h99v98h-99v-98zM821 719h201v98h-201v-98zM821 924h99v98h-99v-98zM821 1128h99v99h-99v-99zM924 207h200v102h103v201h-99v-102h-102v-103 h-102v-98zM924 1231h102v-103h102v-102h99v201h-103v102h-200v-98zM1026 514h98v98h-98v-98zM1026 924h98v98h-98v-98zM1227 715v106h104v-106h-104z" />
<glyph unicode="&#x2022;" horiz-adv-x="1945" d="M0 715v106h100v103h103v102h413v-102h103v-103h98v817h107v-1638h-107v715h-102v102h-103v103h-98v-201h102v-103h103v-106h-205v-307h-209v307h-205v106h103v103h102v201h-98v-103h-103v-102h-104zM203 1124v107h102v205h209v-205h102v-107h-413zM1022 612v414h616v-414 h-104v308h-98v-717h-209v717h-99v-308h-106zM1124 1329v107h103v102h209v-102h102v-107h-102v-205h-209v205h-103z" />
<glyph unicode="&#x2026;" horiz-adv-x="1740" d="M0 408v720h408v103h102v102h102v103h103v100h106v-1536h-106v100h-103v103h-102v102h-102v103h-408zM104 514h308v-102h102v-103h102v-102h99v1122h-99v-102h-102v-103h-102v-102h-308v-508zM920 510v516h106v-516h-106zM1124 408v720h107v-720h-107zM1329 305v926h105 v-926h-105z" />
<glyph unicode="&#x202f;" horiz-adv-x="450" />
<glyph unicode="&#x2039;" horiz-adv-x="1433" d="M0 612v107h104v-107h-104zM0 817v107h104v-107h-104zM0 1022v106h104v-106h-104zM100 408v106h107v-106h-107zM100 1227v106h107v-106h-107zM203 612v107h106v-103h103v-106h-107v102h-102zM203 817v107h106v-107h-106zM203 1022v106h102v103h107v-107h-103v-102h-106z M305 307v105h107v-105h-107zM305 1329v105h107v-105h-107zM408 715v106h106v-106h-106zM408 920v106h106v-106h-106zM510 307v105h106v-105h-106zM510 510v106h106v-106h-106zM510 1124v107h106v-107h-106zM510 1329v105h106v-105h-106zM612 715v106h107v-106h-107zM612 920 v106h107v-106h-107zM715 307v105h106v-105h-106zM715 510v106h102v103h107v-107h-103v-102h-106zM715 1124v107h106v-103h103v-106h-107v102h-102zM715 1329v105h106v-105h-106zM817 817v107h107v-107h-107zM920 408v106h106v-106h-106zM920 1227v106h106v-106h-106z M1022 612v107h104v-107h-104zM1022 817v107h104v-107h-104zM1022 1022v106h104v-106h-104z" />
<glyph unicode="&#x203a;" horiz-adv-x="1433" d="M0 205v309h100v98h-100v107h100v98h-100v107h100v98h-100v309h309v-100h99v100h106v-100h98v100h107v-100h98v100h309v-309h-100v-98h100v-107h-100v-98h100v-107h-100v-98h100v-309h-309v100h-98v-100h-107v100h-98v-100h-106v100h-99v-100h-309zM104 309h99v99h-99v-99 zM104 1128h99v99h-99v-99zM207 514h98v98h-98v-98zM207 719h98v98h-98v-98zM207 924h98v98h-98v-98zM309 412h99v98h-99v-98zM309 1026h99v98h-99v-98zM412 616h98v99h-98v-99zM412 821h98v99h-98v-99zM514 412h98v98h-98v-98zM514 1026h98v98h-98v-98zM616 616h99v99h-99 v-99zM616 821h99v99h-99v-99zM719 412h98v98h-98v-98zM719 1026h98v98h-98v-98zM821 514h99v98h-99v-98zM821 719h99v98h-99v-98zM821 924h99v98h-99v-98zM924 309h98v99h-98v-99zM924 1128h98v99h-98v-99z" />
<glyph unicode="&#x205f;" horiz-adv-x="563" />
<glyph unicode="&#x20ac;" horiz-adv-x="614" d="M0 614v308h307v-308h-307zM102 717h103v102h-103v-102z" />
<glyph unicode="&#x2122;" horiz-adv-x="1945" d="M0 1126v512h102v-102h103v-102h102v-103h-102v-102h-103v-103h-102zM512 0v205h205v-205h-205zM512 307v205h205v-205h-205zM512 614v205h205v-205h-205zM512 922v204h205v-204h-205zM512 1229v205h205v-205h-205zM819 102v103h819v-103h-819zM819 410v102h717v-102h-717 zM819 717v102h819v-102h-819zM819 1024v102h819v-102h-819zM819 1331v103h819v-103h-819z" />
<glyph unicode="&#xe000;" horiz-adv-x="1433" d="M0 0v1434h1434v-1434h-1434z" />
</font>
</defs>
</svg>
